<svg width="50" height="50" viewBox="0 0 50 50" fill="none" xmlns="http://www.w3.org/2000/svg">
<g id="circle-close">
<path id="background" fill-rule="evenodd" clip-rule="evenodd" d="M25 0C11.1929 0 0 11.1929 0 25C0 38.0674 10.0257 48.7932 22.8047 49.9049H27.1953C39.9743 48.7932 50 38.0674 50 25C50 11.1929 38.8071 0 25 0ZM38.7625 34.2985C39.2972 33.7638 39.2972 32.8949 38.7625 32.3602L31.2879 24.9525L38.7625 17.5447C39.2972 17.01 39.2972 16.1411 38.7625 15.6064L34.251 11.0949C33.7163 10.5602 32.8474 10.5602 32.3127 11.0949L24.9049 18.5695L17.4972 11.0949C16.9625 10.5602 16.0936 10.5602 15.5589 11.0949L11.0474 15.6064C10.5127 16.1411 10.5127 17.01 11.0474 17.5447L18.522 24.9525L11.0474 32.3602C10.5127 32.8949 10.5127 33.7638 11.0474 34.2985L15.5589 38.81C16.0936 39.3447 16.9625 39.3447 17.4972 38.81L24.9049 31.3354L32.3127 38.81C32.8474 39.3447 33.7163 39.3447 34.251 38.81L38.7625 34.2985Z" fill="#573697" fill-opacity="0.95"/>
</g>
</svg>
