<svg width="192" height="188" viewBox="0 0 192 188" fill="none" xmlns="http://www.w3.org/2000/svg">
<g id="grousp">
<g id="pole">
<mask id="path-1-inside-1" fill="white">
<path d="M98.8567 167.443V169.232C98.7634 169.516 98.7329 170.114 98.7329 171.239C98.7329 173.219 98.4359 176.907 97.7428 183.689C97.4706 186.437 97.0745 187.13 95.8369 187.031C94.3765 186.907 94.0795 186.264 93.7824 182.254C93.6427 180.46 93.3715 177.309 93.175 175.025L93.1389 174.605C92.9161 172.303 92.8418 170.348 92.9656 170.224C93.0646 170.125 94.8963 169.259 97.0003 168.293C97.4951 168.066 97.9941 167.838 98.4749 167.618L98.8567 167.443Z"/>
<path d="M98.733 157.625C98.8311 157.331 98.9292 155.87 98.9656 155.277C98.8064 155.318 98.6463 155.358 98.4854 155.397C95.4161 156.165 93.2626 156.808 93.0151 157.056C92.8666 157.204 92.7923 158.269 92.8418 159.457L92.9161 161.61L94.7478 160.472C95.7626 159.853 97.124 158.887 97.7924 158.343C98.2402 157.964 98.5335 157.734 98.7317 157.629L98.733 157.625Z"/>
<path d="M95.2676 138.491C96.7555 137.885 97.6084 137.543 98.6092 137.169V140.074C98.5388 140.364 98.4436 140.615 98.3369 140.769C97.9656 141.288 93.6835 143.516 93.0399 143.516C92.8666 143.516 92.7924 142.848 92.8419 141.462L92.9161 139.432L95.2676 138.491Z"/>
<path d="M98.733 115.267V113.704C98.3753 113.826 98.0043 113.954 97.6192 114.085C95.3172 114.877 93.2628 115.744 93.1142 115.967C92.7677 116.412 92.6439 124.952 92.9657 124.952C93.238 124.952 98.1143 123.145 98.3123 122.972C98.436 122.872 98.5598 120.991 98.6093 118.788C98.6421 117.33 98.6857 116.012 98.733 115.267Z"/>
<path d="M92.9161 88.8379C93.0646 88.7141 94.0547 88.4913 95.1439 88.3676C98.3122 87.9963 98.733 88.021 98.7577 88.4913C98.8072 89.2091 98.8072 89.7042 98.7825 93.8131L98.7823 93.8251C98.733 97.6746 98.7323 97.7244 98.1142 98.12C97.4706 98.5408 93.0399 100.274 92.8914 100.15C92.6934 99.927 92.7181 89.0359 92.9161 88.8379Z"/>
<path d="M87.124 6.38736C88.2627 3.96162 90.1191 2.27845 92.6191 1.38737C94.4755 0.719047 97.3963 0.867556 99.2775 1.73389C101.035 2.55072 103.04 4.40716 103.832 5.91707C105.911 10.026 104.5 15.2982 100.639 17.8478L99.3023 18.7388L99.129 44.6794C99.03 58.9369 98.8815 70.8181 98.832 71.0408C98.6835 71.5359 98.0152 71.6596 94.8716 71.8082L92.6191 71.9072L92.4706 54.828C92.3716 45.422 92.2973 34.0111 92.2726 29.4319C92.2726 24.8527 92.1736 20.5705 92.0993 19.8775C91.9508 18.7636 91.827 18.5903 90.8122 17.922C89.2032 16.8824 87.9904 15.4963 87.1735 13.8626C86.5547 12.625 86.4805 12.1794 86.4805 10.1002C86.4805 8.09528 86.5795 7.55072 87.124 6.38736Z"/>
</mask>
<path d="M98.8567 167.443V169.232C98.7634 169.516 98.7329 170.114 98.7329 171.239C98.7329 173.219 98.4359 176.907 97.7428 183.689C97.4706 186.437 97.0745 187.13 95.8369 187.031C94.3765 186.907 94.0795 186.264 93.7824 182.254C93.6427 180.46 93.3715 177.309 93.175 175.025L93.1389 174.605C92.9161 172.303 92.8418 170.348 92.9656 170.224C93.0646 170.125 94.8963 169.259 97.0003 168.293C97.4951 168.066 97.9941 167.838 98.4749 167.618L98.8567 167.443Z" fill="black"/>
<path d="M98.733 157.625C98.8311 157.331 98.9292 155.87 98.9656 155.277C98.8064 155.318 98.6463 155.358 98.4854 155.397C95.4161 156.165 93.2626 156.808 93.0151 157.056C92.8666 157.204 92.7923 158.269 92.8418 159.457L92.9161 161.61L94.7478 160.472C95.7626 159.853 97.124 158.887 97.7924 158.343C98.2402 157.964 98.5335 157.734 98.7317 157.629L98.733 157.625Z" fill="black"/>
<path d="M95.2676 138.491C96.7555 137.885 97.6084 137.543 98.6092 137.169V140.074C98.5388 140.364 98.4436 140.615 98.3369 140.769C97.9656 141.288 93.6835 143.516 93.0399 143.516C92.8666 143.516 92.7924 142.848 92.8419 141.462L92.9161 139.432L95.2676 138.491Z" fill="black"/>
<path d="M98.733 115.267V113.704C98.3753 113.826 98.0043 113.954 97.6192 114.085C95.3172 114.877 93.2628 115.744 93.1142 115.967C92.7677 116.412 92.6439 124.952 92.9657 124.952C93.238 124.952 98.1143 123.145 98.3123 122.972C98.436 122.872 98.5598 120.991 98.6093 118.788C98.6421 117.33 98.6857 116.012 98.733 115.267Z" fill="black"/>
<path d="M92.9161 88.8379C93.0646 88.7141 94.0547 88.4913 95.1439 88.3676C98.3122 87.9963 98.733 88.021 98.7577 88.4913C98.8072 89.2091 98.8072 89.7042 98.7825 93.8131L98.7823 93.8251C98.733 97.6746 98.7323 97.7244 98.1142 98.12C97.4706 98.5408 93.0399 100.274 92.8914 100.15C92.6934 99.927 92.7181 89.0359 92.9161 88.8379Z" fill="black"/>
<path d="M87.124 6.38736C88.2627 3.96162 90.1191 2.27845 92.6191 1.38737C94.4755 0.719047 97.3963 0.867556 99.2775 1.73389C101.035 2.55072 103.04 4.40716 103.832 5.91707C105.911 10.026 104.5 15.2982 100.639 17.8478L99.3023 18.7388L99.129 44.6794C99.03 58.9369 98.8815 70.8181 98.832 71.0408C98.6835 71.5359 98.0152 71.6596 94.8716 71.8082L92.6191 71.9072L92.4706 54.828C92.3716 45.422 92.2973 34.0111 92.2726 29.4319C92.2726 24.8527 92.1736 20.5705 92.0993 19.8775C91.9508 18.7636 91.827 18.5903 90.8122 17.922C89.2032 16.8824 87.9904 15.4963 87.1735 13.8626C86.5547 12.625 86.4805 12.1794 86.4805 10.1002C86.4805 8.09528 86.5795 7.55072 87.124 6.38736Z" fill="black"/>
<path d="M98.8567 167.443V169.232C98.7634 169.516 98.7329 170.114 98.7329 171.239C98.7329 173.219 98.4359 176.907 97.7428 183.689C97.4706 186.437 97.0745 187.13 95.8369 187.031C94.3765 186.907 94.0795 186.264 93.7824 182.254C93.6427 180.46 93.3715 177.309 93.175 175.025L93.1389 174.605C92.9161 172.303 92.8418 170.348 92.9656 170.224C93.0646 170.125 94.8963 169.259 97.0003 168.293C97.4951 168.066 97.9941 167.838 98.4749 167.618L98.8567 167.443Z" stroke="black" stroke-width="0.2" mask="url(#path-1-inside-1)"/>
<path d="M98.733 157.625C98.8311 157.331 98.9292 155.87 98.9656 155.277C98.8064 155.318 98.6463 155.358 98.4854 155.397C95.4161 156.165 93.2626 156.808 93.0151 157.056C92.8666 157.204 92.7923 158.269 92.8418 159.457L92.9161 161.61L94.7478 160.472C95.7626 159.853 97.124 158.887 97.7924 158.343C98.2402 157.964 98.5335 157.734 98.7317 157.629L98.733 157.625Z" stroke="black" stroke-width="0.2" mask="url(#path-1-inside-1)"/>
<path d="M95.2676 138.491C96.7555 137.885 97.6084 137.543 98.6092 137.169V140.074C98.5388 140.364 98.4436 140.615 98.3369 140.769C97.9656 141.288 93.6835 143.516 93.0399 143.516C92.8666 143.516 92.7924 142.848 92.8419 141.462L92.9161 139.432L95.2676 138.491Z" stroke="black" stroke-width="0.2" mask="url(#path-1-inside-1)"/>
<path d="M98.733 115.267V113.704C98.3753 113.826 98.0043 113.954 97.6192 114.085C95.3172 114.877 93.2628 115.744 93.1142 115.967C92.7677 116.412 92.6439 124.952 92.9657 124.952C93.238 124.952 98.1143 123.145 98.3123 122.972C98.436 122.872 98.5598 120.991 98.6093 118.788C98.6421 117.33 98.6857 116.012 98.733 115.267Z" stroke="black" stroke-width="0.2" mask="url(#path-1-inside-1)"/>
<path d="M92.9161 88.8379C93.0646 88.7141 94.0547 88.4913 95.1439 88.3676C98.3122 87.9963 98.733 88.021 98.7577 88.4913C98.8072 89.2091 98.8072 89.7042 98.7825 93.8131L98.7823 93.8251C98.733 97.6746 98.7323 97.7244 98.1142 98.12C97.4706 98.5408 93.0399 100.274 92.8914 100.15C92.6934 99.927 92.7181 89.0359 92.9161 88.8379Z" stroke="black" stroke-width="0.2" mask="url(#path-1-inside-1)"/>
<path d="M87.124 6.38736C88.2627 3.96162 90.1191 2.27845 92.6191 1.38737C94.4755 0.719047 97.3963 0.867556 99.2775 1.73389C101.035 2.55072 103.04 4.40716 103.832 5.91707C105.911 10.026 104.5 15.2982 100.639 17.8478L99.3023 18.7388L99.129 44.6794C99.03 58.9369 98.8815 70.8181 98.832 71.0408C98.6835 71.5359 98.0152 71.6596 94.8716 71.8082L92.6191 71.9072L92.4706 54.828C92.3716 45.422 92.2973 34.0111 92.2726 29.4319C92.2726 24.8527 92.1736 20.5705 92.0993 19.8775C91.9508 18.7636 91.827 18.5903 90.8122 17.922C89.2032 16.8824 87.9904 15.4963 87.1735 13.8626C86.5547 12.625 86.4805 12.1794 86.4805 10.1002C86.4805 8.09528 86.5795 7.55072 87.124 6.38736Z" stroke="black" stroke-width="0.2" mask="url(#path-1-inside-1)"/>
</g>
<g id="Vector">
<mask id="path-2-inside-2" fill="white">
<path fill-rule="evenodd" clip-rule="evenodd" d="M170.267 23.2192L190.798 73.8381H191.307C191.307 74.2304 191.296 74.6216 191.274 75.0113L191.275 75.0138H191.274C190.984 80.1324 188.811 84.9833 185.145 88.6278C181.199 92.5503 175.847 94.7539 170.267 94.7539C164.687 94.7539 159.336 92.5503 155.39 88.6278C151.724 84.9833 149.551 80.1324 149.261 75.0138H149.26L149.261 75.0112C149.239 74.6216 149.228 74.2304 149.228 73.8381H149.737L170.267 23.2192ZM152.935 72.5385L170.267 29.8049L187.6 72.5385H152.935Z"/>
<path fill-rule="evenodd" clip-rule="evenodd" d="M21.2573 23.2192L41.788 73.8381H42.297C42.297 74.2304 42.2859 74.6216 42.2639 75.0113L42.2649 75.0138H42.2637C41.9741 80.1324 39.8006 84.9833 36.1346 88.6278C32.1889 92.5503 26.8374 94.7539 21.2574 94.7539C15.6773 94.7539 10.3258 92.5503 6.38013 88.6278C2.71412 84.9833 0.540701 80.1324 0.25101 75.0138H0.249802L0.250863 75.0112C0.228861 74.6216 0.217773 74.2304 0.217773 73.8381H0.726674L21.2573 23.2192ZM3.92484 72.5385L21.2573 29.8049L38.5899 72.5385H3.92484Z"/>
</mask>
<path fill-rule="evenodd" clip-rule="evenodd" d="M170.267 23.2192L190.798 73.8381H191.307C191.307 74.2304 191.296 74.6216 191.274 75.0113L191.275 75.0138H191.274C190.984 80.1324 188.811 84.9833 185.145 88.6278C181.199 92.5503 175.847 94.7539 170.267 94.7539C164.687 94.7539 159.336 92.5503 155.39 88.6278C151.724 84.9833 149.551 80.1324 149.261 75.0138H149.26L149.261 75.0112C149.239 74.6216 149.228 74.2304 149.228 73.8381H149.737L170.267 23.2192ZM152.935 72.5385L170.267 29.8049L187.6 72.5385H152.935Z" fill="black"/>
<path fill-rule="evenodd" clip-rule="evenodd" d="M21.2573 23.2192L41.788 73.8381H42.297C42.297 74.2304 42.2859 74.6216 42.2639 75.0113L42.2649 75.0138H42.2637C41.9741 80.1324 39.8006 84.9833 36.1346 88.6278C32.1889 92.5503 26.8374 94.7539 21.2574 94.7539C15.6773 94.7539 10.3258 92.5503 6.38013 88.6278C2.71412 84.9833 0.540701 80.1324 0.25101 75.0138H0.249802L0.250863 75.0112C0.228861 74.6216 0.217773 74.2304 0.217773 73.8381H0.726674L21.2573 23.2192ZM3.92484 72.5385L21.2573 29.8049L38.5899 72.5385H3.92484Z" fill="black"/>
<path fill-rule="evenodd" clip-rule="evenodd" d="M170.267 23.2192L190.798 73.8381H191.307C191.307 74.2304 191.296 74.6216 191.274 75.0113L191.275 75.0138H191.274C190.984 80.1324 188.811 84.9833 185.145 88.6278C181.199 92.5503 175.847 94.7539 170.267 94.7539C164.687 94.7539 159.336 92.5503 155.39 88.6278C151.724 84.9833 149.551 80.1324 149.261 75.0138H149.26L149.261 75.0112C149.239 74.6216 149.228 74.2304 149.228 73.8381H149.737L170.267 23.2192ZM152.935 72.5385L170.267 29.8049L187.6 72.5385H152.935Z" stroke="black" stroke-width="20" mask="url(#path-2-inside-2)"/>
<path fill-rule="evenodd" clip-rule="evenodd" d="M21.2573 23.2192L41.788 73.8381H42.297C42.297 74.2304 42.2859 74.6216 42.2639 75.0113L42.2649 75.0138H42.2637C41.9741 80.1324 39.8006 84.9833 36.1346 88.6278C32.1889 92.5503 26.8374 94.7539 21.2574 94.7539C15.6773 94.7539 10.3258 92.5503 6.38013 88.6278C2.71412 84.9833 0.540701 80.1324 0.25101 75.0138H0.249802L0.250863 75.0112C0.228861 74.6216 0.217773 74.2304 0.217773 73.8381H0.726674L21.2573 23.2192ZM3.92484 72.5385L21.2573 29.8049L38.5899 72.5385H3.92484Z" stroke="black" stroke-width="20" mask="url(#path-2-inside-2)"/>
</g>
<g id="Vector_2">
<mask id="path-3-inside-3" fill="white">
<path d="M74.9212 17.2786C74.4261 17.4024 72.3469 18.1202 70.342 18.8628C61.6538 22.0806 56.9509 22.5756 29.6241 23.1202C22.7925 23.2687 21.2578 23.3677 21.2578 23.64C21.2578 24.5063 22.8172 27.3034 24.0301 28.5657C26.2826 30.9667 28.634 31.7093 32.842 31.3875C33.8321 31.3133 34.6984 31.3133 34.7727 31.3628C34.8222 31.4123 34.8717 31.7588 34.8717 32.1053C34.8717 34.2588 36.0845 35.9172 38.3865 36.9568C39.7974 37.6004 40.2182 37.6747 42.7925 37.6747L45.639 37.6994L46.5053 39.5063C48.1638 42.9469 50.9113 44.9024 54.4756 45.1747C56.8519 45.3479 58.3865 44.9766 61.1588 43.6152C62.3469 43.0212 63.436 42.5261 63.5598 42.5261C63.7083 42.5261 64.1043 43.0212 64.4509 43.64C65.837 45.9667 69.0301 48.2192 72.2479 49.1103C74.2281 49.6549 78.8568 49.8281 81.9014 49.4816C84.2776 49.2093 89.0796 48.3677 90.144 48.0707C90.54 47.9469 90.5647 47.1796 90.5647 36.4865V25.0261L89.0796 24.8776C86.4806 24.6053 85.7875 23.9865 84.2776 20.6945C83.2875 18.541 82.7182 17.8974 81.4806 17.5014C80.243 17.1301 76.0845 16.9816 74.9212 17.2786Z"/>
<path d="M110.614 17.3034C108.832 17.7242 108.065 18.4915 107.149 20.7192C105.862 23.7885 104.253 25.0509 101.827 24.8281L101.01 24.7539L100.911 35.942C100.862 42.0806 100.911 47.3034 101.01 47.5261C101.208 47.9717 101.901 48.1449 106.778 48.9865C115.812 50.5459 121.728 49.4073 125.54 45.3974C126.208 44.7043 126.976 43.7142 127.248 43.2192L127.768 42.3034L130.144 43.4915C133.114 45.0014 134.649 45.3727 137 45.1746C141.01 44.8281 143.906 42.4766 145.491 38.2687L145.738 37.6251L149.03 37.5261C152.718 37.4271 154.08 37.0063 155.268 35.5954C155.862 34.8529 156.654 32.7737 156.654 31.8578C156.654 31.4865 157.05 31.437 160.193 31.338L163.733 31.2638L165.169 30.3974C167.446 29.036 169.55 26.2638 170.144 23.8875L170.317 23.2192H165.169C158.51 23.2192 144.451 22.7984 139.822 22.4766C132.223 21.9321 126.679 20.9172 122.248 19.2588C117.495 17.4519 116.753 17.2539 114.203 17.1548C112.842 17.1053 111.233 17.1796 110.614 17.3034Z"/>
</mask>
<path d="M74.9212 17.2786C74.4261 17.4024 72.3469 18.1202 70.342 18.8628C61.6538 22.0806 56.9509 22.5756 29.6241 23.1202C22.7925 23.2687 21.2578 23.3677 21.2578 23.64C21.2578 24.5063 22.8172 27.3034 24.0301 28.5657C26.2826 30.9667 28.634 31.7093 32.842 31.3875C33.8321 31.3133 34.6984 31.3133 34.7727 31.3628C34.8222 31.4123 34.8717 31.7588 34.8717 32.1053C34.8717 34.2588 36.0845 35.9172 38.3865 36.9568C39.7974 37.6004 40.2182 37.6747 42.7925 37.6747L45.639 37.6994L46.5053 39.5063C48.1638 42.9469 50.9113 44.9024 54.4756 45.1747C56.8519 45.3479 58.3865 44.9766 61.1588 43.6152C62.3469 43.0212 63.436 42.5261 63.5598 42.5261C63.7083 42.5261 64.1043 43.0212 64.4509 43.64C65.837 45.9667 69.0301 48.2192 72.2479 49.1103C74.2281 49.6549 78.8568 49.8281 81.9014 49.4816C84.2776 49.2093 89.0796 48.3677 90.144 48.0707C90.54 47.9469 90.5647 47.1796 90.5647 36.4865V25.0261L89.0796 24.8776C86.4806 24.6053 85.7875 23.9865 84.2776 20.6945C83.2875 18.541 82.7182 17.8974 81.4806 17.5014C80.243 17.1301 76.0845 16.9816 74.9212 17.2786Z" fill="#714F91"/>
<path d="M110.614 17.3034C108.832 17.7242 108.065 18.4915 107.149 20.7192C105.862 23.7885 104.253 25.0509 101.827 24.8281L101.01 24.7539L100.911 35.942C100.862 42.0806 100.911 47.3034 101.01 47.5261C101.208 47.9717 101.901 48.1449 106.778 48.9865C115.812 50.5459 121.728 49.4073 125.54 45.3974C126.208 44.7043 126.976 43.7142 127.248 43.2192L127.768 42.3034L130.144 43.4915C133.114 45.0014 134.649 45.3727 137 45.1746C141.01 44.8281 143.906 42.4766 145.491 38.2687L145.738 37.6251L149.03 37.5261C152.718 37.4271 154.08 37.0063 155.268 35.5954C155.862 34.8529 156.654 32.7737 156.654 31.8578C156.654 31.4865 157.05 31.437 160.193 31.338L163.733 31.2638L165.169 30.3974C167.446 29.036 169.55 26.2638 170.144 23.8875L170.317 23.2192H165.169C158.51 23.2192 144.451 22.7984 139.822 22.4766C132.223 21.9321 126.679 20.9172 122.248 19.2588C117.495 17.4519 116.753 17.2539 114.203 17.1548C112.842 17.1053 111.233 17.1796 110.614 17.3034Z" fill="#714F91"/>
<path d="M74.9212 17.2786C74.4261 17.4024 72.3469 18.1202 70.342 18.8628C61.6538 22.0806 56.9509 22.5756 29.6241 23.1202C22.7925 23.2687 21.2578 23.3677 21.2578 23.64C21.2578 24.5063 22.8172 27.3034 24.0301 28.5657C26.2826 30.9667 28.634 31.7093 32.842 31.3875C33.8321 31.3133 34.6984 31.3133 34.7727 31.3628C34.8222 31.4123 34.8717 31.7588 34.8717 32.1053C34.8717 34.2588 36.0845 35.9172 38.3865 36.9568C39.7974 37.6004 40.2182 37.6747 42.7925 37.6747L45.639 37.6994L46.5053 39.5063C48.1638 42.9469 50.9113 44.9024 54.4756 45.1747C56.8519 45.3479 58.3865 44.9766 61.1588 43.6152C62.3469 43.0212 63.436 42.5261 63.5598 42.5261C63.7083 42.5261 64.1043 43.0212 64.4509 43.64C65.837 45.9667 69.0301 48.2192 72.2479 49.1103C74.2281 49.6549 78.8568 49.8281 81.9014 49.4816C84.2776 49.2093 89.0796 48.3677 90.144 48.0707C90.54 47.9469 90.5647 47.1796 90.5647 36.4865V25.0261L89.0796 24.8776C86.4806 24.6053 85.7875 23.9865 84.2776 20.6945C83.2875 18.541 82.7182 17.8974 81.4806 17.5014C80.243 17.1301 76.0845 16.9816 74.9212 17.2786Z" stroke="black" stroke-width="0.2" mask="url(#path-3-inside-3)"/>
<path d="M110.614 17.3034C108.832 17.7242 108.065 18.4915 107.149 20.7192C105.862 23.7885 104.253 25.0509 101.827 24.8281L101.01 24.7539L100.911 35.942C100.862 42.0806 100.911 47.3034 101.01 47.5261C101.208 47.9717 101.901 48.1449 106.778 48.9865C115.812 50.5459 121.728 49.4073 125.54 45.3974C126.208 44.7043 126.976 43.7142 127.248 43.2192L127.768 42.3034L130.144 43.4915C133.114 45.0014 134.649 45.3727 137 45.1746C141.01 44.8281 143.906 42.4766 145.491 38.2687L145.738 37.6251L149.03 37.5261C152.718 37.4271 154.08 37.0063 155.268 35.5954C155.862 34.8529 156.654 32.7737 156.654 31.8578C156.654 31.4865 157.05 31.437 160.193 31.338L163.733 31.2638L165.169 30.3974C167.446 29.036 169.55 26.2638 170.144 23.8875L170.317 23.2192H165.169C158.51 23.2192 144.451 22.7984 139.822 22.4766C132.223 21.9321 126.679 20.9172 122.248 19.2588C117.495 17.4519 116.753 17.2539 114.203 17.1548C112.842 17.1053 111.233 17.1796 110.614 17.3034Z" stroke="black" stroke-width="0.2" mask="url(#path-3-inside-3)"/>
</g>
<g id="Vector_3">
<path d="M99.3524 155.175C102.758 154.256 105.731 152.919 107.123 151.709C107.47 151.412 107.891 151.214 108.089 151.239C108.782 151.387 109.376 152.947 109.376 154.679C109.376 158.318 107.816 160.694 103.955 162.922C101.505 164.333 95.2175 167.377 91.0343 169.135C90.2289 169.483 89.3279 169.87 88.4847 170.231L88.4801 170.233L88.4796 170.234C87.4071 170.694 86.4288 171.113 85.861 171.363C81.3808 173.343 80.1679 173.615 80.1679 172.65C80.1679 171.808 81.2818 170.892 85.5887 168.12C95.2506 161.91 98.4087 159.724 99.0522 158.501C99.1083 158.42 99.1678 158.299 99.2274 158.12C99.4595 157.424 99.3651 155.421 99.3524 155.175Z" fill="#714F91"/>
<path d="M108.387 110.273C106.782 110.884 104.559 111.7 99.2286 113.533V114.689C100.037 115.005 101.757 116.133 102.694 117.031C104.278 118.516 104.649 119.803 103.981 121.313C103.734 121.882 103.14 122.699 102.669 123.095C101.456 124.16 98.1643 125.719 94.5256 126.932C88.1395 129.085 85.6642 130.348 83.2385 132.749C80.7137 135.224 79.5009 138.516 79.7236 142.179C79.7979 143.615 79.9959 144.457 80.4662 145.372C81.085 146.561 83.1147 148.714 83.6098 148.714C83.7583 148.714 84.1543 148.417 84.5009 148.07C85.194 147.377 90.1444 144.259 90.5652 144.259C90.9365 144.259 90.8623 143.863 90.3177 142.848C90.0454 142.328 89.8227 141.536 89.8227 141.09C89.8227 138.516 91.6791 137.427 102.422 133.714C104.922 132.823 107.793 131.709 108.808 131.189C113.115 129.036 115.813 124.679 115.813 119.877C115.813 117.724 115.367 116.066 114.303 114.036C113.387 112.353 110.937 109.605 110.367 109.63C110.169 109.63 109.278 109.927 108.387 110.273Z" fill="#714F91"/>
<path d="M109.623 53.2685C108.237 53.6646 107.544 54.0111 106.282 55.0012C104.772 56.1646 104.227 56.8577 103.361 58.6151C102.742 59.9022 102.569 60.62 102.495 62.1299C102.396 64.0359 102.396 64.0606 103.237 64.9022C104.326 65.9913 105.415 66.2883 108.757 66.4616C111.158 66.5606 111.653 66.5111 112.891 66.0656C113.658 65.7685 114.846 65.026 115.539 64.4072C117 63.0953 118.336 62.5755 120.242 62.5755C122.321 62.5755 122.618 62.8973 122.594 64.9517L122.594 64.9534C122.569 66.6101 122.569 66.6352 121.455 67.6497C119.475 69.4567 114.846 71.3874 110.118 72.427C106.331 73.2685 103.188 73.6646 96.9996 74.0854C86.6778 74.8032 81.8511 76.5111 76.8016 81.2388C74.0046 83.8131 72.8412 85.521 71.5541 88.8131C70.9848 90.2487 70.9105 90.7933 70.9105 93.7636C70.8857 96.9071 70.9353 97.1794 71.5788 98.5656C72.7669 101.14 74.8214 103.318 78.064 105.471C79.3511 106.338 79.7966 106.313 81.3065 105.298C82.6432 104.407 87.0739 102.105 88.0392 101.808C88.361 101.709 89.2521 101.363 90.0194 101.016L91.4056 100.397L89.5986 99.4566C87.4947 98.3428 86.8511 97.7982 85.8858 96.2636C84.4996 94.0854 84.3759 91.1893 85.5392 89.4071C86.059 88.6151 87.5689 87.7487 89.5739 87.1299C91.8016 86.4121 93.3363 86.1893 99.4749 85.5953C105.762 85.0012 107.47 84.7537 110.614 83.9616C115.366 82.7735 119.574 80.9418 123.609 78.2685C130.267 73.8874 133.411 68.7636 132.668 63.4418C131.826 57.5755 127.148 54.1349 118.683 53.1943C115.589 52.8478 111.034 52.8973 109.623 53.2685Z" fill="#714F91"/>
<path d="M99.3514 167.217C100.531 166.676 101.49 166.235 101.827 166.066C103.51 165.225 103.881 165.349 107.124 167.799C111.752 171.289 112.421 172.378 109.871 172.304C108.584 172.279 107.099 171.834 101.505 169.779C100.631 169.456 99.7865 169.177 99.3514 169.065V167.217Z" fill="#714F91"/>
<path d="M102.969 135.613L102.943 135.622C101.215 136.231 100.12 136.617 99.2274 136.942V138.443L99.5244 138.74C100.465 139.705 100.589 140.943 99.8462 141.809C99.4502 142.205 91.6284 146.24 91.1828 146.24C90.9848 146.24 87.9155 148.121 86.9749 148.814C83.9551 151.067 82.8165 152.849 82.8165 155.398C82.8165 156.661 82.9403 157.28 83.4601 158.27C84.2521 159.829 86.2571 162.057 87.7423 163.047C88.7323 163.69 88.9551 163.74 89.5244 163.517C89.8957 163.369 90.4403 162.973 90.7621 162.651C91.2571 162.106 91.3066 161.809 91.3066 159.235C91.3066 157.7 91.3809 156.24 91.4551 156.017C91.7274 155.349 93.3611 154.681 97.1977 153.666C99.2027 153.146 101.455 152.478 102.198 152.205C106.059 150.745 108.633 148.072 109.772 144.359C110.416 142.156 110.366 138.171 109.673 136.067C109.617 135.902 109.566 135.748 109.519 135.604L109.518 135.603C109.249 134.789 109.086 134.293 108.745 134.078C108.215 133.743 107.255 134.086 104.804 134.963C104.531 135.06 104.241 135.164 103.93 135.275C103.589 135.395 103.269 135.507 102.969 135.613Z" fill="#714F91"/>
<path d="M109.995 86.8081C111.529 86.5359 115.49 85.2982 116.257 84.8774C116.48 84.7289 116.975 84.6052 117.321 84.6052C117.891 84.6052 118.089 84.8527 118.856 86.3873C120.836 90.4963 121.059 95.224 119.401 98.5903C117.841 101.808 113.732 105.298 108.831 107.575C107.049 108.417 102.148 110.224 98.559 111.363C93.0392 113.12 90.3659 114.432 88.7323 116.14C87.8659 117.08 87.5937 117.773 87.5937 119.11C87.5937 121.09 88.5095 122.501 90.9105 124.209C91.5293 124.679 91.9748 125.125 91.8758 125.199C91.7521 125.298 90.96 125.62 90.0689 125.942C87.0739 127.031 84.4006 128.442 83.0392 129.704C82.0986 130.546 81.3313 130.273 78.9798 128.219C77.2719 126.734 75.6382 124.531 75.0689 122.922C74.8709 122.353 74.6481 121.09 74.5491 120.1C74.3016 117.105 75.4897 114.432 78.4352 111.264C81.6283 107.848 85.3164 105.769 93.5343 102.798C100.415 100.298 102.544 99.1596 104.524 96.9814C107.049 94.1844 107.049 90.7933 104.549 88.5903C104.029 88.1448 103.683 87.7487 103.732 87.6992C103.782 87.625 104.896 87.4764 106.183 87.3279C107.445 87.1794 109.178 86.9566 109.995 86.8081Z" fill="#714F91"/>
<path d="M59.7471 59.2339C61.5541 56.1151 65.762 53.7883 70.9848 53.0458C73.7323 52.625 80.1184 52.6002 81.6036 52.9715C83.9303 53.5408 86.5788 55.7685 87.767 58.1448C88.064 58.7388 88.4353 60.0755 88.6085 61.0903C89.0046 63.6151 88.6333 64.5062 86.7026 65.4468C85.5887 65.9913 84.9204 66.1151 82.6927 66.2141C79.4501 66.3626 78.0887 65.9418 75.3907 63.9121C73.3858 62.4022 72.1481 61.9567 70.5392 62.1794C68.8808 62.4022 68.5343 62.8477 68.5343 64.7042C68.5343 66.8081 69.1036 67.4517 72.3462 69.0111C75.6135 70.5705 77.0739 71.0408 81.9006 72.0804C84.1283 72.5755 85.9848 73.021 86.059 73.0953C86.1333 73.1448 86.0343 73.2685 85.8363 73.318C81.2818 74.7537 77.2966 76.9566 74.8462 79.3329C73.9551 80.1992 73.0887 80.8923 72.8907 80.8923C71.9254 80.8923 67.9402 78.6893 65.2917 76.6596C60.7125 73.1943 58.3857 69.2586 58.3857 65.0012C58.3857 62.9468 58.9303 60.62 59.7471 59.2339Z" fill="#714F91"/>
</g>
</g>
</svg>
