<svg width="22" height="22" viewBox="0 0 22 22" fill="none" xmlns="http://www.w3.org/2000/svg">
<g id="linkedin" clip-path="url(#clip0)">
<path id="text" fill-rule="evenodd" clip-rule="evenodd" d="M3.36914 8.31055V18.75H6.61133H6.61621V8.31055H3.36914ZM3.11035 5.00488C3.11035 6.04004 3.9502 6.88477 4.99023 6.88477C6.03027 6.88477 6.87012 6.04492 6.87012 5.00488C6.87012 3.96973 6.02539 3.125 4.99023 3.125C3.9502 3.125 3.11035 3.96973 3.11035 5.00488ZM15.5225 18.75H18.7646V13.0273C18.7646 10.2148 18.1543 8.05176 14.873 8.05176C13.2959 8.05176 12.2363 8.91602 11.8018 9.73633H11.7578V8.31055H8.64746V18.75H11.8896V13.584C11.8896 12.2217 12.1484 10.9033 13.8379 10.9033C15.498 10.9033 15.5225 12.4609 15.5225 13.6719V18.75Z" fill="#C4C4C4"/>
<path id="background" d="M20.3125 0H1.55762C0.698242 0 0 0.708008 0 1.57715V20.2979C0 21.167 0.698242 21.875 1.55762 21.875H20.3125C21.1719 21.875 21.875 21.167 21.875 20.2979V1.57715C21.875 0.708008 21.1719 0 20.3125 0ZM6.61133 18.75H3.36914V8.31055H6.61621V18.75H6.61133ZM4.99023 6.88477C3.9502 6.88477 3.11035 6.04004 3.11035 5.00488C3.11035 3.96973 3.9502 3.125 4.99023 3.125C6.02539 3.125 6.87012 3.96973 6.87012 5.00488C6.87012 6.04492 6.03027 6.88477 4.99023 6.88477V6.88477ZM18.7646 18.75H15.5225V13.6719C15.5225 12.4609 15.498 10.9033 13.8379 10.9033C12.1484 10.9033 11.8896 12.2217 11.8896 13.584V18.75H8.64746V8.31055H11.7578V9.73633H11.8018C12.2363 8.91602 13.2959 8.05176 14.873 8.05176C18.1543 8.05176 18.7646 10.2148 18.7646 13.0273V18.75V18.75Z" fill="black"/>
</g>
<defs>
<clipPath id="clip0">
<rect width="21.875" height="21.875" fill="white"/>
</clipPath>
</defs>
</svg>
