<svg width="22" height="22" viewBox="0 0 22 22" fill="none" xmlns="http://www.w3.org/2000/svg">
<path d="M19.5312 0H2.34375C1.04932 0 0 1.04932 0 2.34375V19.5312C0 20.8257 1.04932 21.875 2.34375 21.875H19.5312C20.8257 21.875 21.875 20.8257 21.875 19.5312V2.34375C21.875 1.04932 20.8257 0 19.5312 0ZM4.58984 18.75C4.24644 18.75 3.9523 18.5121 3.87617 18.1823L3.14385 15.0084C3.10523 14.8411 3.12665 14.6655 3.20436 14.5123C3.28207 14.3592 3.41114 14.2382 3.56899 14.1706L6.98687 12.7058C7.13287 12.6432 7.29525 12.6298 7.44954 12.6676C7.60383 12.7053 7.74165 12.7922 7.84224 12.9152L9.35576 14.765C11.7456 13.6438 13.6671 11.6958 14.765 9.35586L12.9151 7.84233C12.7922 7.74175 12.7052 7.60392 12.6675 7.44964C12.6297 7.29535 12.6431 7.13297 12.7057 6.98696L14.1705 3.56909C14.2382 3.41123 14.3591 3.28217 14.5123 3.20446C14.6655 3.12675 14.8411 3.10533 15.0084 3.14395L18.1822 3.87627C18.3436 3.91348 18.4876 4.00429 18.5907 4.13389C18.6939 4.26349 18.75 4.42422 18.75 4.58984C18.75 12.4166 12.405 18.75 4.58984 18.75Z" fill="black"/>
</svg>
