<svg width="192" height="192" viewBox="0 0 192 192" fill="none" xmlns="http://www.w3.org/2000/svg">
<path fill-rule="evenodd" clip-rule="evenodd" d="M192 96C192 148.983 148.983 192 96 192C43.017 192 0 148.983 0 96C0 43.017 43.017 0 96 0C148.983 0 192 43.017 192 96ZM6.56165 115.144L6.56699 115.17L6.79499 116.22L7.03799 117.264L7.29299 118.308L7.55999 119.349L7.83899 120.384L8.12999 121.416L8.43299 122.445L8.74799 123.468L9.07499 124.488L9.41399 125.502L9.76199 126.516L10.125 127.521L10.5 128.523L10.887 129.522L11.283 130.515L11.694 131.505L12.114 132.489L12.546 133.467L12.99 134.439L13.446 135.408L13.914 136.371L14.391 137.328L14.883 138.279L15.384 139.227L15.897 140.166L16.422 141.102L16.956 142.032L17.502 142.953L18.063 143.871L18.63 144.783L19.212 145.686L19.803 146.583L20.67 147.858L21.558 149.115L22.464 150.357L23.388 151.581L24.33 152.79L25.293 153.978L26.274 155.151L27.273 156.306L28.287 157.443L29.322 158.562L30.372 159.663L31.44 160.746L32.523 161.808L33.624 162.855L34.74 163.881L35.874 164.886L37.023 165.873L38.187 166.842L39.366 167.79L40.563 168.717L41.772 169.626L42.996 170.514L44.232 171.381L45.486 172.227L46.752 173.052L48.03 173.856L49.323 174.639L50.628 175.401L51.948 176.139L53.277 176.856L54.621 177.552L55.977 178.227L57.342 178.878L58.722 179.505L60.111 180.111L61.512 180.693L62.925 181.251L64.347 181.788L65.778 182.298L67.221 182.787L68.268 183.123L69.318 183.45L70.368 183.762L71.418 184.059L72.471 184.347L73.524 184.62L74.577 184.881L75.633 185.13L76.689 185.364L77.748 185.586L78.807 185.796L79.866 185.994L80.928 186.18L81.99 186.351L83.055 186.51L84.12 186.657L85.185 186.792L86.253 186.912L87.321 187.02L88.392 187.116L89.463 187.197L90.534 187.269L91.608 187.326L92.685 187.371L93.759 187.401L94.836 187.422L95.916 187.428L96.996 187.422L98.076 187.401L99.159 187.371L100.245 187.326L101.328 187.269L102.414 187.197L103.503 187.116L104.592 187.02L105.684 186.912L106.776 186.789L107.868 186.657L108.963 186.51L110.058 186.351L110.736 186.243L111.414 186.132L112.092 186.015L112.773 185.892L113.454 185.763L114.135 185.628L114.816 185.487L115.497 185.34L116.181 185.187L116.865 185.028L117.546 184.866L118.23 184.695L118.911 184.521L119.595 184.341L120.276 184.155L120.957 183.963L121.638 183.768L122.316 183.564L122.994 183.357L123.672 183.144L124.35 182.928L125.025 182.703L125.697 182.475L126.369 182.241L127.038 182.004L127.707 181.761L128.373 181.512L129.036 181.257L129.699 180.999L130.359 180.735L131.016 180.468L131.67 180.195L132.321 179.916L132.969 179.634L133.614 179.346L134.256 179.055L134.895 178.758L135.531 178.455L136.164 178.149L136.791 177.84L138.849 176.778L140.877 175.671L142.866 174.516L144.822 173.316L146.742 172.068L148.626 170.778L150.474 169.446L152.283 168.069L154.056 166.65L155.787 165.192L157.482 163.695L159.135 162.156L160.749 160.581L162.321 158.967L163.851 157.317L165.339 155.631L166.785 153.912L168.186 152.157L169.545 150.369L170.859 148.548L172.125 146.697L173.349 144.813L174.525 142.902L175.653 140.961L176.736 138.993L177.768 136.995L178.752 134.973L179.688 132.924L180.573 130.851L181.407 128.754L182.19 126.636L182.922 124.494L183.6 122.328L184.227 120.144L184.797 117.942L185.316 115.719L185.781 113.478L186.189 111.222L186.54 108.948L186.837 106.659L186.894 106.149L186.948 105.636L186.999 105.117L187.05 104.598L187.095 104.076L187.137 103.548L187.179 103.02L187.215 102.489L187.248 101.958L187.281 101.421L187.308 100.887L187.335 100.347L187.356 99.807L187.374 99.267L187.392 98.724L187.404 98.181L187.416 97.635L187.422 97.092L187.428 96.546V96V95.457L187.422 94.911L187.416 94.368L187.404 93.822L187.392 93.279L187.374 92.736L187.356 92.196L187.335 91.656L187.308 91.116L187.281 90.579L187.248 90.045L187.215 89.511L187.179 88.98L187.137 88.452L187.095 87.927L187.05 87.405L186.999 86.883L186.948 86.367L186.894 85.854L186.837 85.344L186.687 84.126L186.522 82.914L186.339 81.702L186.141 80.496L185.928 79.296L185.7 78.099L185.454 76.905L185.193 75.717L184.917 74.532L184.626 73.353L184.317 72.177L183.996 71.01L183.657 69.843L183.303 68.685L182.934 67.53L182.55 66.381L182.148 65.238L181.734 64.101L181.305 62.967L180.858 61.842L180.399 60.723L179.922 59.607L179.433 58.5L178.926 57.399L178.407 56.304L177.873 55.215L177.324 54.132L176.757 53.058L176.178 51.99L175.587 50.928L174.978 49.875L174.354 48.828L173.718 47.787L173.067 46.755L172.401 45.732L171.72 44.715L171.027 43.704L170.319 42.705L169.596 41.712L168.858 40.725L167.46 38.931L166.023 37.179L164.544 35.466L163.029 33.792L161.475 32.163L159.888 30.576L158.265 29.031L156.606 27.528L154.914 26.067L153.189 24.654L151.434 23.283L149.649 21.957L147.831 20.676L145.986 19.44L144.114 18.252L142.215 17.109L140.289 16.011L138.339 14.964L136.362 13.962L134.364 13.008L132.345 12.105L130.302 11.25L128.238 10.443L126.156 9.68697L125.508 9.46931C116.161 6.23615 106.126 4.48 95.68 4.48C45.3116 4.48 4.48 45.3116 4.48 95.68C4.48 102.36 5.19822 108.873 6.56165 115.144Z" fill="white"/>
<path d="M99.972 4.65602L102.219 4.77902L104.457 4.95902L106.683 5.19602L108.903 5.48402L111.108 5.82602L113.301 6.22202L115.482 6.66902L117.648 7.17002L119.802 7.72202L121.935 8.32502L124.056 8.98202L126.156 9.68702L128.238 10.443L130.302 11.25L132.345 12.105L134.364 13.008L136.362 13.962L138.339 14.964L140.289 16.011L142.215 17.109L144.114 18.252L145.986 19.44L147.831 20.676L149.649 21.957L151.434 23.283L153.189 24.654L154.914 26.067L156.606 27.528L158.265 29.031L159.888 30.576L161.475 32.163L163.029 33.792L164.544 35.466L166.023 37.179L167.46 38.931L168.858 40.725L169.596 41.712L170.319 42.705L171.027 43.704L171.72 44.715L172.401 45.732L173.067 46.755L173.718 47.787L174.354 48.828L174.978 49.875L175.587 50.928L176.178 51.99L176.757 53.058L177.324 54.132L177.873 55.215L178.407 56.304L178.926 57.399L179.433 58.5L179.922 59.607L180.399 60.723L180.858 61.842L181.305 62.967L181.734 64.101L182.148 65.238L182.55 66.381L182.934 67.53L183.303 68.685L183.657 69.843L183.996 71.01L184.317 72.177L184.626 73.353L184.917 74.532L185.193 75.717L185.454 76.905L185.7 78.099L185.928 79.296L186.141 80.496L186.339 81.702L186.522 82.914L186.687 84.126L186.837 85.344L186.894 85.854L186.948 86.367L186.999 86.883L187.05 87.405L187.095 87.927L187.137 88.452L187.179 88.98L187.215 89.511L187.248 90.045L187.281 90.579L187.308 91.116L187.335 91.656L187.356 92.196L187.374 92.736L187.392 93.279L187.404 93.822L187.416 94.368L187.422 94.911L187.428 95.457V96V96.546L187.422 97.092L187.416 97.635L187.404 98.181L187.392 98.724L187.374 99.267L187.356 99.807L187.335 100.347L187.308 100.887L187.281 101.421L187.248 101.958L187.215 102.489L187.179 103.02L187.137 103.548L187.095 104.076L187.05 104.598L186.999 105.117L186.948 105.636L186.894 106.149L186.837 106.659L186.54 108.948L186.189 111.222L185.781 113.478L185.316 115.719L184.797 117.942L184.227 120.144L183.6 122.328L182.922 124.494L182.19 126.636L181.407 128.754L180.573 130.851L179.688 132.924L178.752 134.973L177.768 136.995L176.736 138.993L175.653 140.961L174.525 142.902L173.349 144.813L172.125 146.697L170.859 148.548L169.545 150.369L168.186 152.157L166.785 153.912L165.339 155.631L163.851 157.317L162.321 158.967L160.749 160.581L159.135 162.156L157.482 163.695L155.787 165.192L154.056 166.65L152.283 168.069L150.474 169.446L148.626 170.778L146.742 172.068L144.822 173.316L142.866 174.516L140.877 175.671L138.849 176.778L136.791 177.84L136.164 178.149L135.531 178.455L134.895 178.758L134.256 179.055L133.614 179.346L132.969 179.634L132.321 179.916L131.67 180.195L131.016 180.468L130.359 180.735L129.699 180.999L129.036 181.257L128.373 181.512L127.707 181.761L127.038 182.004L126.369 182.241L125.697 182.475L125.025 182.703L124.35 182.928L123.672 183.144L122.994 183.357L122.316 183.564L121.638 183.768L120.957 183.963L120.276 184.155L119.595 184.341L118.911 184.521L118.23 184.695L117.546 184.866L116.865 185.028L116.181 185.187L115.497 185.34L114.816 185.487L114.135 185.628L113.454 185.763L112.773 185.892L112.092 186.015L111.414 186.132L110.736 186.243L110.058 186.351L108.963 186.51L107.868 186.657L106.776 186.789L105.684 186.912L104.592 187.02L103.503 187.116L102.414 187.197L101.328 187.269L100.245 187.326L99.159 187.371L98.076 187.401L96.996 187.422L95.916 187.428L94.836 187.422L93.759 187.401L92.685 187.371L91.608 187.326L90.534 187.269L89.463 187.197L88.392 187.116L87.321 187.02L86.253 186.912L85.185 186.792L84.12 186.657L83.055 186.51L81.99 186.351L80.928 186.18L79.866 185.994L78.807 185.796L77.748 185.586L76.689 185.364L75.633 185.13L74.577 184.881L73.524 184.62L72.471 184.347L71.418 184.059L70.368 183.762L69.318 183.45L68.268 183.123L67.221 182.787L65.778 182.298L64.347 181.788L62.925 181.251L61.512 180.693L60.111 180.111L58.722 179.505L57.342 178.878L55.977 178.227L54.621 177.552L53.277 176.856L51.948 176.139L50.628 175.401L49.323 174.639L48.03 173.856L46.752 173.052L45.486 172.227L44.232 171.381L42.996 170.514L41.772 169.626L40.563 168.717L39.366 167.79L38.187 166.842L37.023 165.873L35.874 164.886L34.74 163.881L33.624 162.855L32.523 161.808L31.44 160.746L30.372 159.663L29.322 158.562L28.287 157.443L27.273 156.306L26.274 155.151L25.293 153.978L24.33 152.79L23.388 151.581L22.464 150.357L21.558 149.115L20.67 147.858L19.803 146.583L19.212 145.686L18.63 144.783L18.063 143.871L17.502 142.953L16.956 142.032L16.422 141.102L15.897 140.166L15.384 139.227L14.883 138.279L14.391 137.328L13.914 136.371L13.446 135.408L12.99 134.439L12.546 133.467L12.114 132.489L11.694 131.505L11.283 130.515L10.887 129.522L10.5 128.523L10.125 127.521L9.76199 126.516L9.41399 125.502L9.07499 124.488L8.74799 123.468L8.43299 122.445L8.12999 121.416L7.83899 120.384L7.55999 119.349L7.29299 118.308L7.03799 117.264L6.79499 116.22L6.56699 115.17L6.34799 114.117L6.14099 113.058L5.94899 111.999L5.76599 110.937L5.59799 109.872L5.43899 108.804L5.29499 107.733L5.16299 106.659L5.10599 106.149L5.05199 105.636L5.00099 105.117L4.94999 104.598L4.90499 104.076L4.86299 103.548L4.82099 103.02L4.78499 102.489L4.75199 101.958L4.71899 101.421L4.69199 100.887L4.66499 100.347L4.64399 99.807L4.62599 99.267L4.60799 98.724L4.59599 98.181L4.58399 97.635L4.57799 97.092L4.57199 96.546V96V95.457L4.57799 94.911L4.58399 94.368L4.59599 93.822L4.60799 93.279L4.62599 92.736L4.64399 92.196L4.66499 91.656L4.69199 91.116L4.71899 90.579L4.75199 90.045L4.78499 89.511L4.82099 88.98L4.86299 88.452L4.90499 87.927L4.94999 87.405L5.00099 86.883L5.05199 86.367L5.10599 85.854L5.16299 85.344L5.42099 83.334L5.72099 81.336L6.06299 79.35L6.44999 77.376L6.87899 75.417L7.34999 73.47L7.85999 71.538L8.41499 69.621L9.00899 67.719L9.64499 65.832L10.32 63.963L11.037 62.112L11.793 60.276L12.588 58.461L13.419 56.664L14.292 54.885L15.204 53.127L16.152 51.39L17.136 49.674L18.159 47.979L19.218 46.308L20.313 44.658L21.447 43.032L22.614 41.43L23.817 39.855L25.056 38.301L26.328 36.777L27.633 35.277L28.974 33.804L30.348 32.358L31.755 30.939L33.198 29.55L34.668 28.191L36.174 26.862L37.71 25.563L39.279 24.294L40.878 23.055L42.507 21.852L44.169 20.679L45.858 19.539L46.863 18.888L47.877 18.249L48.9 17.625L49.929 17.016L50.967 16.419L52.014 15.837L53.067 15.267L54.126 14.712L55.194 14.172L56.268 13.647L57.351 13.134L58.437 12.636L59.532 12.153L60.633 11.682L61.74 11.229L62.853 10.788L63.972 10.362L65.097 9.95102L66.228 9.55502L67.362 9.17402L68.502 8.80802L69.648 8.45402L70.797 8.11802L71.952 7.79402L73.113 7.48802L74.274 7.19702L75.444 6.91802L76.614 6.65702L77.79 6.41102L78.969 6.17702L80.151 5.96102L81.339 5.76002L82.527 5.57702L83.718 5.40602L84.912 5.25002L86.109 5.11202L87.309 4.98902L88.512 4.88102L89.715 4.79102L90.921 4.71302L93.192 4.61402L95.46 4.57202L97.719 4.58702L99.972 4.65602ZM110.253 19.338L110.256 19.347L110.262 19.362L110.271 19.377L110.28 19.395L110.292 19.419L110.307 19.443L110.322 19.473L110.343 19.506L110.364 19.539L110.385 19.578L110.409 19.617L110.436 19.662L110.463 19.707L110.493 19.755L110.526 19.806L110.559 19.86L110.592 19.917L110.628 19.974L110.667 20.034L110.706 20.097L110.748 20.163L110.79 20.229L110.835 20.298L110.88 20.367L110.925 20.439L110.973 20.514L111.021 20.589L111.072 20.667L111.123 20.745L111.174 20.826L111.228 20.907L111.282 20.991L111.336 21.075L111.393 21.159L111.447 21.246L111.507 21.333L111.564 21.423L111.624 21.51L112.686 23.172L113.724 24.837L114.735 26.505L115.725 28.176L116.691 29.85L117.63 31.524L118.545 33.201L119.436 34.881L120.303 36.558L121.143 38.238L121.956 39.915L122.745 41.592L123.51 43.269L124.248 44.946L124.959 46.617L125.646 48.288L126.306 49.956L126.939 51.621L127.545 53.283L128.124 54.939L128.679 56.592L129.204 58.239L129.702 59.88L130.173 61.518L130.62 63.147L131.034 64.77L131.424 66.387L131.784 67.995L132.117 69.594L132.423 71.187L132.699 72.771L132.948 74.346L133.167 75.909L133.356 77.463L133.518 79.008L133.653 80.541L133.755 82.062L133.83 83.571L133.875 85.068L133.89 86.553L133.881 87.564L133.863 88.569L133.83 89.565L133.785 90.555L133.725 91.536L133.653 92.508L133.566 93.474L133.467 94.434L133.356 95.385L133.23 96.327L133.092 97.263L132.942 98.193L132.774 99.114L132.597 100.029L132.405 100.938L132.198 101.838L131.979 102.732L131.748 103.62L131.499 104.502L131.241 105.375L130.968 106.245L130.68 107.106L130.38 107.961L130.065 108.81L129.738 109.653L129.396 110.49L129.039 111.321L128.67 112.146L128.286 112.965L127.89 113.778L127.479 114.585L127.053 115.386L126.615 116.184L126.162 116.976L125.694 117.759L125.214 118.542L124.719 119.316L124.212 120.087L123.687 120.852L123.15 121.611L123.021 121.791L122.895 121.965L122.778 122.13L122.664 122.283L122.556 122.433L122.454 122.571L122.358 122.703L122.265 122.829L122.175 122.946L122.091 123.057L122.01 123.165L121.932 123.264L121.857 123.357L121.785 123.444L121.713 123.528L121.644 123.606L121.578 123.678L121.512 123.747L121.446 123.813L121.383 123.876L121.32 123.933L121.257 123.99L121.191 124.041L121.128 124.092L121.062 124.14L120.996 124.185L120.927 124.23L120.858 124.272L120.783 124.314L120.708 124.356L120.63 124.395L120.549 124.437L120.465 124.476L120.378 124.518L120.285 124.56L120.189 124.605L120.087 124.647L119.979 124.695L119.868 124.743L119.748 124.791L119.301 124.98L118.851 125.163L118.392 125.34L117.933 125.514L117.468 125.682L117 125.844L116.529 126.003L116.058 126.156L115.581 126.306L115.101 126.447L114.618 126.588L114.135 126.72L113.652 126.849L113.166 126.969L112.677 127.089L112.188 127.2L111.699 127.305L111.21 127.407L110.721 127.503L110.229 127.593L109.74 127.677L109.254 127.758L108.765 127.83L108.279 127.899L107.793 127.959L107.31 128.016L106.83 128.067L106.35 128.109L105.873 128.148L105.399 128.181L104.928 128.208L104.46 128.226L103.998 128.241L103.536 128.25H103.08L102.627 128.247L102.18 128.235L101.739 128.217L101.301 128.193L100.869 128.163L100.203 128.106L99.54 128.034L98.88 127.95L98.22 127.854L97.563 127.749L96.912 127.629L96.264 127.497L95.619 127.356L94.98 127.203L94.347 127.041L93.717 126.864L93.096 126.681L92.481 126.486L91.869 126.279L91.269 126.063L90.672 125.838L90.087 125.604L89.508 125.361L88.938 125.109L88.377 124.845L87.828 124.575L87.285 124.296L86.757 124.008L86.238 123.714L85.728 123.408L85.233 123.096L84.747 122.778L84.276 122.451L83.817 122.118L83.37 121.779L82.938 121.431L82.521 121.077L82.116 120.717L81.729 120.351L81.354 119.976L80.997 119.598L80.655 119.214L80.331 118.827L80.022 118.431L79.731 118.032L79.611 117.858L79.494 117.684L79.38 117.516L79.272 117.348L79.167 117.18L79.065 117.015L78.969 116.853L78.876 116.688L78.786 116.529L78.699 116.367L78.618 116.208L78.54 116.052L78.465 115.893L78.393 115.734L78.327 115.578L78.261 115.422L78.201 115.263L78.144 115.107L78.09 114.951L78.039 114.792L77.991 114.636L77.949 114.477L77.907 114.318L77.868 114.156L77.835 113.994L77.802 113.832L77.775 113.667L77.748 113.502L77.724 113.334L77.706 113.166L77.688 112.995L77.673 112.824L77.661 112.647L77.652 112.47L77.646 112.29L77.643 112.11L77.64 111.924L77.643 111.735L77.646 111.546L77.652 111.351L77.661 111.195L77.67 111.039L77.679 110.889L77.691 110.742L77.706 110.598L77.721 110.454L77.736 110.316L77.754 110.181L77.775 110.046L77.796 109.914L77.817 109.785L77.841 109.656L77.868 109.533L77.895 109.41L77.925 109.287L77.958 109.17L77.991 109.05L78.024 108.936L78.063 108.819L78.102 108.708L78.144 108.594L78.186 108.483L78.231 108.375L78.279 108.264L78.33 108.156L78.381 108.048L78.435 107.943L78.492 107.835L78.549 107.73L78.612 107.625L78.675 107.52L78.741 107.415L78.81 107.31L78.879 107.202L78.954 107.097L79.029 106.992L79.11 106.887L79.191 106.779L79.275 106.671L79.362 106.563L80.136 105.624L81.087 105.594L81.513 105.573L81.936 105.552L82.35 105.531L82.755 105.504L83.157 105.477L83.55 105.447L83.94 105.414L84.321 105.378L84.696 105.342L85.068 105.303L85.431 105.261L85.791 105.216L86.148 105.168L86.496 105.117L86.841 105.066L87.183 105.009L87.519 104.952L87.852 104.892L88.182 104.826L88.506 104.76L88.83 104.691L89.148 104.616L89.463 104.541L89.775 104.463L90.084 104.379L90.393 104.295L90.699 104.208L91.002 104.115L91.302 104.019L91.602 103.923L91.899 103.821L92.196 103.716L92.493 103.608L92.787 103.494L93.081 103.38L93.375 103.26L93.669 103.137L93.963 103.011L94.254 102.879L94.548 102.747L94.659 102.693L94.77 102.639L94.887 102.585L95.007 102.525L95.127 102.465L95.25 102.402L95.376 102.339L95.502 102.273L95.631 102.207L95.76 102.138L95.889 102.069L96.018 102L96.147 101.931L96.276 101.859L96.405 101.79L96.531 101.718L96.657 101.649L96.78 101.58L96.903 101.511L97.023 101.442L97.14 101.373L97.251 101.307L97.362 101.241L97.47 101.178L97.572 101.118L97.671 101.058L97.764 100.998L97.854 100.944L97.938 100.89L98.016 100.839L98.088 100.791L98.154 100.746L98.214 100.707L98.265 100.668L98.31 100.632L98.349 100.602L98.379 100.575L98.4 100.551L98.415 100.533L98.418 100.518L98.415 100.515H98.409L98.403 100.518H98.394L98.385 100.521L98.373 100.524L98.358 100.53L98.343 100.533L98.325 100.539L98.307 100.548L98.286 100.554L98.265 100.563L98.241 100.572L98.217 100.581L98.19 100.593L98.163 100.605L98.136 100.617L98.106 100.629L98.073 100.641L98.04 100.656L98.007 100.671L97.974 100.686L97.938 100.701L97.902 100.719L97.863 100.737L97.824 100.752L97.785 100.77L97.746 100.791L97.704 100.809L97.662 100.83L97.62 100.851L97.575 100.869L97.533 100.893L97.488 100.914L97.443 100.935L97.398 100.959L97.35 100.98L97.305 101.004L97.257 101.028L96.969 101.169L96.681 101.307L96.393 101.439L96.108 101.568L95.82 101.694L95.535 101.817L95.247 101.934L94.962 102.048L94.677 102.159L94.389 102.264L94.101 102.369L93.813 102.468L93.525 102.564L93.234 102.654L92.943 102.744L92.652 102.828L92.358 102.912L92.061 102.99L91.764 103.065L91.464 103.134L91.164 103.203L90.861 103.269L90.555 103.329L90.249 103.389L89.937 103.443L89.625 103.494L89.31 103.545L88.989 103.59L88.668 103.632L88.344 103.671L88.014 103.707L87.681 103.743L87.345 103.773L87.006 103.8L86.661 103.824L86.313 103.848L85.959 103.866L85.602 103.881L85.242 103.896L84.876 103.908L81.732 103.986L83.181 102.555L85.359 102.381L85.515 102.366L85.677 102.354L85.839 102.336L86.004 102.321L86.172 102.3L86.34 102.282L86.511 102.261L86.682 102.237L86.853 102.213L87.024 102.189L87.198 102.165L87.369 102.138L87.54 102.111L87.711 102.081L87.882 102.054L88.05 102.024L88.218 101.994L88.383 101.961L88.545 101.931L88.707 101.898L88.863 101.865L89.019 101.832L89.172 101.799L89.319 101.766L89.463 101.733L89.601 101.7L89.739 101.667L89.868 101.634L89.994 101.598L90.114 101.565L90.228 101.532L90.336 101.499L90.438 101.466L90.534 101.433L90.624 101.403L90.705 101.37L90.777 101.34L90.846 101.31L90.903 101.28L90.954 101.25L90.972 101.238L90.99 101.229L91.008 101.217L91.023 101.208L91.038 101.196L91.05 101.187L91.062 101.181L91.074 101.172L91.086 101.163L91.095 101.157L91.104 101.151L91.11 101.145L91.116 101.139L91.122 101.133L91.125 101.13L91.128 101.124V101.121V101.118V101.115V101.112H91.125L91.119 101.109H91.113H91.107H91.101H91.092H91.08H91.071L91.059 101.112L91.044 101.115H91.029L91.014 101.118L90.996 101.121L90.978 101.127L90.957 101.13L90.936 101.133L90.915 101.139L90.891 101.145L90.867 101.148L90.84 101.154L90.693 101.184L90.549 101.214L90.405 101.241L90.261 101.268L90.12 101.295L89.979 101.319L89.841 101.343L89.703 101.367L89.565 101.391L89.43 101.412L89.298 101.433L89.163 101.454L89.034 101.472L88.902 101.49L88.773 101.508L88.644 101.526L88.518 101.544L88.392 101.559L88.269 101.574L88.146 101.586L88.023 101.598L87.903 101.613L87.783 101.622L87.666 101.634L87.549 101.643L87.432 101.652L87.318 101.661L87.204 101.667L87.09 101.676L86.979 101.682L86.868 101.685L86.76 101.691L86.652 101.694L86.544 101.697H86.439L86.334 101.7H86.229H86.127L86.025 101.697H85.923L84.342 101.649L85.536 100.98L85.704 100.887L85.875 100.797L86.049 100.71L86.226 100.623L86.403 100.539L86.583 100.455L86.766 100.374L86.949 100.293L87.138 100.215L87.33 100.14L87.525 100.065L87.723 99.99L87.924 99.918L88.128 99.849L88.335 99.78L88.548 99.711L88.764 99.645L88.983 99.579L89.208 99.516L89.436 99.453L89.67 99.393L89.907 99.33L90.15 99.273L90.396 99.213L90.648 99.156L90.906 99.102L91.167 99.045L91.434 98.991L91.707 98.94L91.986 98.886L92.271 98.835L92.562 98.784L92.859 98.733L93.162 98.685L93.471 98.637L93.786 98.589L94.107 98.541L94.437 98.496L94.77 98.448L95.112 98.403L95.316 98.376L95.505 98.352L95.685 98.325L95.85 98.304L96.003 98.28L96.141 98.259L96.27 98.241L96.387 98.223L96.492 98.205L96.582 98.19L96.663 98.175L96.729 98.16L96.786 98.148L96.831 98.139L96.864 98.127L96.885 98.121L96.894 98.112L96.891 98.106L96.879 98.103L96.855 98.1L96.819 98.097H96.771H96.714L96.645 98.1L96.564 98.103L96.474 98.106L96.372 98.112L96.258 98.118L96.135 98.127L96.003 98.136L95.859 98.148L95.703 98.16L95.538 98.175L95.361 98.19L95.178 98.205L94.98 98.223L94.776 98.241L94.56 98.262L94.332 98.286L94.098 98.307L93.717 98.349L93.339 98.391L92.964 98.433L92.589 98.478L92.22 98.526L91.854 98.574L91.488 98.625L91.128 98.676L90.771 98.73L90.414 98.784L90.063 98.841L89.715 98.901L89.37 98.961L89.028 99.021L88.689 99.084L88.356 99.147L88.023 99.213L87.696 99.282L87.375 99.348L87.054 99.42L86.739 99.492L86.427 99.564L86.118 99.636L85.815 99.714L85.515 99.789L85.221 99.867L84.93 99.948L84.642 100.029L84.36 100.11L84.084 100.194L83.811 100.278L83.541 100.365L83.277 100.452L83.019 100.539L82.764 100.629L82.515 100.719L82.272 100.809L82.032 100.902L81.798 100.995L81.57 101.091L81.513 101.115L81.456 101.139L81.402 101.16L81.348 101.181L81.294 101.199L81.24 101.214L81.186 101.229L81.135 101.244L81.081 101.256L81.027 101.265L80.973 101.274L80.919 101.283L80.862 101.286L80.805 101.289L80.745 101.292H80.685L80.622 101.289L80.559 101.286L80.49 101.28L80.421 101.271L80.349 101.262L80.274 101.25L80.196 101.238L80.115 101.223L80.028 101.205L79.941 101.184L79.848 101.163L79.752 101.139L79.65 101.112L79.542 101.085L79.431 101.055L79.317 101.022L79.194 100.986L79.068 100.95L78.936 100.911L78.798 100.869L78.654 100.824L78.504 100.779L78.348 100.728L78.183 100.677L77.943 100.599L77.7 100.518L77.457 100.434L77.214 100.344L76.971 100.251L76.728 100.155L76.485 100.059L76.242 99.957L75.999 99.852L75.756 99.744L75.516 99.63L75.273 99.516L75.033 99.399L74.796 99.279L74.556 99.159L74.319 99.033L74.082 98.904L73.848 98.772L73.614 98.64L73.383 98.505L73.155 98.367L72.924 98.226L72.699 98.082L72.474 97.938L72.252 97.791L72.03 97.641L71.814 97.491L71.598 97.338L71.385 97.182L71.175 97.026L70.965 96.867L70.761 96.705L70.56 96.543L70.359 96.378L70.164 96.213L69.972 96.048L69.783 95.877L69.597 95.709L69.414 95.538L69.237 95.364L68.979 95.109L68.73 94.851L68.49 94.593L68.256 94.338L68.031 94.083L67.815 93.828L67.605 93.573L67.404 93.321L67.212 93.069L67.029 92.817L66.852 92.565L66.684 92.313L66.525 92.064L66.372 91.815L66.231 91.566L66.096 91.317L65.967 91.071L65.85 90.825L65.739 90.582L65.637 90.336L65.544 90.093L65.457 89.85L65.379 89.61L65.31 89.37L65.25 89.13L65.199 88.893L65.154 88.656L65.118 88.419L65.091 88.185L65.073 87.951L65.064 87.717L65.061 87.486L65.067 87.255L65.082 87.027L65.106 86.799L65.139 86.571L65.178 86.346L65.226 86.121L65.286 85.899L65.349 85.677L65.382 85.575L65.418 85.473L65.451 85.374L65.484 85.275L65.52 85.179L65.556 85.086L65.592 84.993L65.631 84.9L65.667 84.813L65.709 84.723L65.748 84.636L65.79 84.552L65.832 84.468L65.874 84.384L65.919 84.3L65.967 84.219L66.015 84.138L66.063 84.06L66.114 83.979L66.165 83.901L66.219 83.823L66.273 83.745L66.33 83.667L66.387 83.589L66.45 83.511L66.51 83.433L66.576 83.355L66.642 83.277L66.708 83.199L66.78 83.118L66.852 83.04L66.927 82.959L67.002 82.878L67.08 82.797L67.164 82.716L67.248 82.632L67.332 82.548L67.422 82.464L67.515 82.377L67.608 82.29L67.761 82.149L67.917 82.011L68.07 81.876L68.229 81.744L68.385 81.618L68.544 81.492L68.706 81.372L68.868 81.255L69.033 81.138L69.201 81.027L69.372 80.916L69.543 80.808L69.72 80.706L69.897 80.604L70.08 80.505L70.266 80.406L70.455 80.313L70.65 80.22L70.845 80.13L71.049 80.04L71.253 79.956L71.466 79.869L71.682 79.788L71.904 79.707L72.129 79.626L72.363 79.548L72.6 79.473L72.843 79.398L73.095 79.323L73.35 79.251L73.614 79.179L73.884 79.107L74.16 79.038L74.445 78.969L74.736 78.9L75.036 78.834L75.345 78.765L75.66 78.699L75.981 78.633L76.314 78.567L76.431 78.546L76.548 78.522L76.662 78.501L76.776 78.477L76.89 78.456L77.001 78.435L77.109 78.411L77.22 78.39L77.325 78.369L77.43 78.348L77.535 78.327L77.637 78.306L77.736 78.285L77.832 78.267L77.928 78.246L78.021 78.228L78.114 78.21L78.201 78.192L78.288 78.174L78.369 78.156L78.45 78.138L78.528 78.123L78.603 78.108L78.672 78.093L78.741 78.078L78.807 78.063L78.867 78.051L78.924 78.039L78.981 78.027L79.029 78.015L79.077 78.006L79.119 77.994L79.158 77.985L79.194 77.979L79.224 77.97L79.251 77.964L79.275 77.958L79.29 77.955L79.305 77.949L79.314 77.946L79.332 77.937L79.344 77.928L79.341 77.919L79.332 77.913L79.311 77.907L79.284 77.904L79.245 77.901L79.2 77.898H79.146L79.083 77.901L79.014 77.904L78.936 77.907L78.852 77.91L78.762 77.916L78.666 77.925L78.564 77.934L78.456 77.943L78.342 77.952L78.225 77.964L78.102 77.976L77.976 77.988L77.844 78.003L77.709 78.018L77.571 78.033L77.43 78.048L77.289 78.066L77.142 78.084L76.995 78.102L76.845 78.12L76.695 78.141L76.542 78.159L76.389 78.18L76.236 78.201L76.086 78.222L75.933 78.246L75.78 78.267L75.63 78.291L75.48 78.315L75.333 78.336L75.186 78.36L74.571 78.465L73.968 78.576L73.377 78.69L72.795 78.807L72.225 78.93L71.667 79.059L71.121 79.191L70.584 79.329L70.059 79.47L69.543 79.617L69.042 79.77L68.55 79.926L68.067 80.088L67.596 80.256L67.134 80.427L66.687 80.601L66.246 80.784L65.817 80.97L65.4 81.162L64.992 81.357L64.593 81.558L64.206 81.765L63.831 81.978L63.462 82.194L63.108 82.416L62.76 82.644L62.424 82.875L62.097 83.115L61.779 83.358L61.473 83.607L61.176 83.859L60.888 84.12L60.612 84.384L60.342 84.654L60.084 84.93L59.835 85.212L59.595 85.5L59.367 85.791L59.145 86.091L58.935 86.394L58.854 86.514L58.776 86.631L58.701 86.748L58.629 86.862L58.56 86.979L58.494 87.093L58.428 87.207L58.365 87.321L58.305 87.435L58.248 87.546L58.194 87.66L58.14 87.771L58.089 87.885L58.041 87.999L57.993 88.11L57.948 88.224L57.906 88.338L57.867 88.452L57.828 88.569L57.792 88.683L57.756 88.8L57.723 88.92L57.693 89.037L57.666 89.157L57.639 89.277L57.612 89.4L57.591 89.526L57.567 89.649L57.549 89.778L57.531 89.907L57.513 90.036L57.498 90.168L57.486 90.303L57.474 90.441L57.465 90.579L57.456 90.72L57.447 90.864L57.441 91.008L57.438 91.158L57.435 91.308L57.432 91.407V91.5V91.593V91.68V91.767V91.851L57.435 91.929V92.01L57.438 92.085L57.441 92.16L57.444 92.232L57.447 92.301L57.45 92.37L57.456 92.439L57.462 92.505L57.468 92.568L57.474 92.631L57.48 92.694L57.489 92.754L57.498 92.817L57.507 92.877L57.516 92.934L57.525 92.994L57.537 93.054L57.549 93.111L57.561 93.171L57.576 93.228L57.591 93.288L57.606 93.348L57.621 93.408L57.639 93.468L57.657 93.528L57.678 93.591L57.696 93.654L57.717 93.717L57.738 93.783L57.762 93.849L57.786 93.918L57.81 93.99L57.837 94.062L57.93 94.314L58.029 94.566L58.134 94.815L58.245 95.061L58.362 95.307L58.485 95.553L58.614 95.793L58.749 96.033L58.89 96.27L59.037 96.507L59.19 96.741L59.349 96.972L59.514 97.2L59.685 97.428L59.862 97.653L60.042 97.875L60.231 98.094L60.423 98.313L60.624 98.529L60.828 98.742L61.038 98.952L61.254 99.159L61.476 99.366L61.701 99.567L61.935 99.768L62.172 99.966L62.415 100.161L62.661 100.353L62.916 100.545L63.174 100.731L63.438 100.914L63.708 101.097L63.981 101.274L64.26 101.451L64.545 101.625L64.836 101.793L65.13 101.961L65.43 102.126L65.733 102.285L66.045 102.444L66.201 102.522L66.36 102.6L66.522 102.678L66.684 102.756L66.852 102.831L67.02 102.909L67.191 102.984L67.365 103.059L67.539 103.131L67.716 103.206L67.893 103.278L68.073 103.35L68.253 103.419L68.436 103.491L68.619 103.56L68.802 103.626L68.988 103.695L69.171 103.758L69.357 103.824L69.543 103.887L69.732 103.95L69.918 104.01L70.104 104.07L70.29 104.127L70.479 104.184L70.665 104.238L70.848 104.292L71.034 104.343L71.217 104.394L71.4 104.442L71.583 104.49L71.763 104.535L71.943 104.58L72.123 104.622L72.3 104.661L72.474 104.697L72.648 104.733L72.819 104.769L72.987 104.799L73.155 104.829L74.718 105.099L73.749 106.119L73.554 106.329L73.362 106.542L73.176 106.752L72.993 106.965L72.819 107.178L72.648 107.394L72.48 107.607L72.321 107.823L72.165 108.039L72.015 108.255L71.868 108.471L71.727 108.69L71.592 108.906L71.463 109.128L71.337 109.347L71.217 109.566L71.1 109.788L70.992 110.01L70.887 110.235L70.785 110.457L70.692 110.682L70.602 110.91L70.515 111.135L70.434 111.363L70.359 111.594L70.29 111.822L70.224 112.053L70.164 112.287L70.107 112.521L70.056 112.755L70.011 112.989L69.969 113.226L69.933 113.466L69.903 113.706L69.876 113.946L69.855 114.186L69.837 114.429L69.825 114.675L69.819 114.921L69.816 115.17L69.819 115.446L69.828 115.722L69.843 115.995L69.864 116.268L69.894 116.538L69.927 116.808L69.966 117.075L70.014 117.345L70.068 117.609L70.128 117.876L70.194 118.14L70.266 118.404L70.344 118.668L70.431 118.932L70.524 119.193L70.623 119.457L70.731 119.718L70.842 119.982L70.962 120.243L71.091 120.504L71.223 120.768L71.364 121.032L71.514 121.293L71.67 121.557L71.832 121.824L72.003 122.088L72.18 122.355L72.363 122.622L72.555 122.889L72.756 123.159L72.963 123.429L73.176 123.702L73.398 123.975L73.629 124.248L73.866 124.527L74.109 124.803L74.364 125.085L74.625 125.367L74.892 125.652L75.168 125.937L75.51 126.279L75.861 126.618L76.218 126.954L76.584 127.284L76.956 127.611L77.337 127.935L77.727 128.253L78.12 128.568L78.525 128.877L78.933 129.183L79.353 129.483L79.776 129.78L80.208 130.074L80.643 130.359L81.09 130.641L81.54 130.92L81.996 131.193L82.458 131.46L82.929 131.724L83.403 131.982L83.886 132.234L84.372 132.483L84.864 132.723L85.362 132.96L85.866 133.194L86.376 133.419L86.889 133.638L87.408 133.854L87.93 134.064L88.461 134.268L88.992 134.466L89.532 134.658L90.075 134.844L90.621 135.024L91.17 135.198L91.725 135.366L92.286 135.528L92.847 135.681L93.414 135.831L93.984 135.975L94.026 135.984L94.056 135.993L94.074 136.005L94.083 136.011L94.08 136.02L94.068 136.026L94.047 136.032L94.017 136.038L93.978 136.044L93.93 136.05L93.876 136.053L93.813 136.056L93.744 136.059L93.666 136.062H93.582L93.492 136.065H93.399H93.297L93.192 136.062H93.084L92.97 136.059L92.853 136.056L92.733 136.053L92.61 136.05L92.484 136.044L92.355 136.041L92.226 136.035L92.094 136.029L91.962 136.023L91.827 136.014L91.695 136.008L91.563 135.999L91.431 135.99L91.299 135.981L91.167 135.969L91.041 135.96L90.912 135.948L90.789 135.936L90.669 135.924L90.549 135.912L89.931 135.837L89.313 135.756L88.695 135.66L88.077 135.555L87.462 135.438L86.847 135.309L86.235 135.171L85.623 135.021L85.014 134.859L84.408 134.688L83.802 134.505L83.199 134.313L82.596 134.109L81.999 133.896L81.402 133.671L80.808 133.434L80.214 133.191L79.626 132.933L79.041 132.669L78.456 132.39L77.877 132.105L77.298 131.808L76.725 131.502L76.155 131.184L75.585 130.857L75.021 130.521L74.463 130.173L73.905 129.816L73.353 129.45L72.804 129.075L72.261 128.688L71.721 128.295L71.184 127.89L70.653 127.476L70.125 127.05L69.603 126.618L69.084 126.174L68.571 125.724L68.061 125.262L67.56 124.791L67.008 124.26L66.465 123.72L65.931 123.171L65.406 122.61L64.89 122.046L64.383 121.47L63.888 120.888L63.399 120.297L62.922 119.697L62.454 119.091L61.998 118.479L61.548 117.858L61.11 117.231L60.684 116.595L60.264 115.956L59.859 115.308L59.46 114.657L59.073 113.997L58.698 113.331L58.332 112.662L57.978 111.987L57.636 111.303L57.303 110.619L56.982 109.929L56.673 109.233L56.373 108.531L56.085 107.829L55.809 107.121L55.545 106.407L55.293 105.693L55.053 104.973L54.825 104.25L54.606 103.524L54.402 102.795L54.21 102.063L54.03 101.328L53.862 100.593L53.709 99.855L53.565 99.114L53.436 98.37L53.298 97.482L53.178 96.591L53.079 95.703L52.998 94.815L52.938 93.93L52.896 93.045L52.872 92.163L52.869 91.284L52.884 90.405L52.917 89.532L52.968 88.659L53.04 87.789L53.13 86.922L53.238 86.058L53.364 85.2L53.508 84.342L53.673 83.49L53.856 82.641L54.054 81.795L54.273 80.955L54.51 80.118L54.765 79.284L55.041 78.459L55.332 77.637L55.641 76.818L55.968 76.008L56.313 75.201L56.676 74.4L57.06 73.605L57.459 72.819L57.876 72.036L58.308 71.259L58.761 70.491L59.232 69.726L59.718 68.97L60.222 68.223L60.744 67.482L61.284 66.747L61.842 66.021L62.415 65.301L62.67 64.992L62.934 64.68L63.204 64.368L63.48 64.053L63.765 63.735L64.059 63.417L64.356 63.099L64.662 62.778L64.971 62.457L65.289 62.136L65.61 61.815L65.94 61.494L66.27 61.173L66.609 60.852L66.951 60.534L67.296 60.216L67.644 59.898L67.998 59.583L68.352 59.268L68.712 58.956L69.075 58.647L69.438 58.341L69.804 58.038L70.173 57.735L70.542 57.438L70.911 57.144L71.283 56.853L71.655 56.568L72.027 56.286L72.402 56.007L72.774 55.734L73.146 55.467L73.518 55.203L73.887 54.948L74.256 54.696L74.625 54.45L74.991 54.21L75.354 53.976L75.714 53.751L76.071 53.532L76.131 53.496L76.188 53.463L76.242 53.427L76.299 53.394L76.353 53.361L76.407 53.328L76.461 53.295L76.512 53.262L76.563 53.232L76.611 53.199L76.662 53.169L76.707 53.139L76.755 53.109L76.8 53.079L76.842 53.049L76.887 53.022L76.926 52.995L76.968 52.968L77.004 52.941L77.043 52.917L77.076 52.893L77.109 52.869L77.142 52.845L77.172 52.824L77.202 52.803L77.229 52.785L77.253 52.764L77.277 52.746L77.298 52.731L77.316 52.716L77.334 52.701L77.349 52.686L77.364 52.674L77.373 52.662L77.382 52.653L77.391 52.644L77.394 52.638L77.397 52.632V52.626L77.394 52.623L77.385 52.617L77.37 52.614H77.349L77.325 52.617L77.298 52.62L77.262 52.626L77.226 52.635L77.184 52.647L77.136 52.662L77.085 52.677L77.031 52.695L76.974 52.713L76.911 52.737L76.845 52.761L76.776 52.785L76.701 52.815L76.626 52.845L76.548 52.875L76.464 52.908L76.38 52.944L76.29 52.98L76.2 53.019L76.104 53.061L76.008 53.103L75.909 53.145L75.807 53.19L75.705 53.235L75.597 53.283L75.492 53.331L75.381 53.382L75.27 53.433L75.156 53.487L75.042 53.541L74.925 53.595L74.808 53.652L74.688 53.709L74.568 53.766L74.448 53.823L74.325 53.883L74.202 53.946L73.914 54.09L73.62 54.24L73.317 54.402L73.008 54.567L72.69 54.741L72.366 54.924L72.033 55.11L71.697 55.305L71.355 55.503L71.007 55.71L70.653 55.92L70.296 56.139L69.93 56.361L69.564 56.589L69.192 56.823L68.817 57.06L68.439 57.303L68.058 57.549L67.671 57.801L67.284 58.056L66.897 58.314L66.504 58.578L66.111 58.845L65.718 59.112L65.325 59.385L64.929 59.661L64.533 59.937L64.137 60.219L63.741 60.501L63.345 60.786L62.952 61.071L62.559 61.359L62.169 61.647L61.779 61.938L61.392 62.229L61.008 62.523L60.624 62.814L60.246 63.108L59.871 63.402L59.499 63.696L58.989 64.104L58.482 64.521L57.984 64.947L57.492 65.382L57.003 65.826L56.523 66.279L56.046 66.738L55.578 67.206L55.113 67.683L54.657 68.166L54.204 68.658L53.76 69.156L53.322 69.663L52.893 70.176L52.467 70.695L52.05 71.223L51.639 71.757L51.234 72.297L50.838 72.846L50.448 73.398L50.067 73.959L49.692 74.523L49.326 75.096L48.966 75.672L48.615 76.254L48.27 76.845L47.934 77.439L47.604 78.036L47.286 78.642L46.974 79.251L46.671 79.863L46.374 80.484L46.089 81.105L45.81 81.732L45.54 82.365L45.279 83.001L45.027 83.64L44.784 84.285L44.55 84.933L44.325 85.584L44.256 85.794L44.184 86.001L44.118 86.208L44.052 86.409L43.989 86.607L43.926 86.805L43.866 86.997L43.806 87.186L43.749 87.375L43.692 87.561L43.638 87.747L43.587 87.93L43.536 88.11L43.485 88.29L43.437 88.467L43.392 88.644L43.344 88.821L43.302 88.998L43.257 89.172L43.215 89.346L43.176 89.52L43.134 89.694L43.095 89.871L43.059 90.045L43.023 90.219L42.987 90.396L42.951 90.573L42.918 90.75L42.882 90.93L42.849 91.11L42.819 91.293L42.786 91.476L42.756 91.662L42.726 91.848L42.696 92.037L42.666 92.229L42.639 92.424L42.609 92.622L42.582 92.823L42.552 93.027L42.534 93.189L42.513 93.363L42.495 93.54L42.477 93.726L42.462 93.915L42.444 94.113L42.429 94.314L42.417 94.521L42.402 94.734L42.39 94.95L42.378 95.172L42.369 95.394L42.36 95.622L42.351 95.85L42.342 96.084L42.336 96.318L42.33 96.552L42.327 96.789L42.321 97.026L42.318 97.263V97.5L42.315 97.74V97.974L42.318 98.211V98.445L42.321 98.676L42.327 98.904L42.33 99.132L42.336 99.354L42.345 99.573L42.351 99.789L42.36 100.002L42.372 100.209L42.384 100.41L42.396 100.605L42.408 100.797L42.423 100.98L42.438 101.157L42.456 101.325L42.471 101.49L42.567 102.273L42.678 103.053L42.801 103.83L42.936 104.604L43.086 105.372L43.248 106.14L43.425 106.902L43.614 107.661L43.815 108.417L44.031 109.167L44.259 109.914L44.499 110.655L44.751 111.396L45.018 112.128L45.297 112.857L45.588 113.583L45.894 114.303L46.209 115.017L46.539 115.728L46.881 116.433L47.235 117.132L47.604 117.828L47.982 118.518L48.375 119.202L48.777 119.88L49.194 120.552L49.623 121.221L50.061 121.881L50.514 122.538L50.979 123.186L51.456 123.831L51.945 124.467L52.443 125.097L52.956 125.721L53.481 126.339L54.015 126.951L54.561 127.554L55.122 128.151L55.692 128.742L56.274 129.324L56.532 129.576L56.793 129.828L57.06 130.08L57.33 130.332L57.603 130.584L57.882 130.836L58.161 131.085L58.446 131.337L58.734 131.583L59.022 131.832L59.316 132.078L59.61 132.321L59.907 132.564L60.204 132.807L60.504 133.044L60.804 133.281L61.107 133.515L61.41 133.749L61.713 133.977L62.016 134.202L62.322 134.427L62.625 134.646L62.928 134.862L63.234 135.075L63.534 135.285L63.837 135.489L64.137 135.69L64.437 135.885L64.734 136.08L65.031 136.266L65.322 136.449L65.613 136.626L65.904 136.8L66.189 136.968L66.471 137.13L66.75 137.286L67.029 137.436L67.299 137.58L67.569 137.718L67.833 137.85L68.073 137.97L68.319 138.087L68.574 138.21L68.835 138.33L69.102 138.453L69.375 138.576L69.657 138.702L69.942 138.825L70.23 138.951L70.524 139.074L70.821 139.2L71.124 139.326L71.427 139.449L71.733 139.572L72.042 139.695L72.351 139.818L72.66 139.938L72.972 140.058L73.284 140.175L73.593 140.292L73.902 140.409L74.211 140.52L74.517 140.631L74.823 140.739L75.123 140.844L75.42 140.949L75.714 141.048L76.005 141.147L76.29 141.24L76.572 141.333L76.845 141.42L77.115 141.504L77.376 141.582L77.631 141.657L77.88 141.729L78.12 141.798L78.351 141.861L78.573 141.918L78.786 141.972L78.99 142.02L79.047 142.032L79.095 142.044L79.134 142.056L79.164 142.068L79.188 142.077L79.206 142.086L79.215 142.092V142.101L79.209 142.107L79.197 142.11L79.179 142.116H79.155L79.125 142.119L79.086 142.122H79.044L78.996 142.119H78.942L78.885 142.116L78.822 142.113L78.756 142.11L78.684 142.107L78.606 142.101L78.525 142.095L78.441 142.086L78.354 142.08L78.264 142.071L78.171 142.062L78.075 142.053L77.973 142.044L77.874 142.032L77.769 142.02L77.661 142.008L77.553 141.996L77.445 141.984L77.334 141.969L77.223 141.954L77.109 141.939L76.995 141.924L76.881 141.909L76.764 141.891L76.014 141.774L75.267 141.645L74.52 141.504L73.776 141.351L73.035 141.183L72.297 141.006L71.562 140.817L70.827 140.616L70.098 140.403L69.369 140.181L68.646 139.944L67.926 139.698L67.212 139.44L66.498 139.17L65.793 138.888L65.088 138.597L64.389 138.294L63.696 137.982L63.006 137.658L62.322 137.322L61.641 136.977L60.969 136.62L60.3 136.254L59.637 135.879L58.983 135.492L58.332 135.096L57.687 134.688L57.051 134.271L56.418 133.845L55.794 133.41L55.179 132.963L54.57 132.507L53.967 132.042L53.37 131.568L52.785 131.085L52.203 130.593L51.633 130.089L51.069 129.579L50.514 129.06L49.968 128.529L49.653 128.217L49.341 127.902L49.035 127.587L48.735 127.275L48.438 126.96L48.147 126.645L47.862 126.33L47.58 126.012L47.304 125.694L47.031 125.379L46.767 125.058L46.503 124.74L46.245 124.419L45.993 124.098L45.744 123.774L45.498 123.45L45.258 123.123L45.024 122.796L44.793 122.466L44.565 122.136L44.34 121.803L44.121 121.47L43.905 121.131L43.695 120.795L43.485 120.453L43.281 120.111L43.08 119.766L42.885 119.418L42.69 119.067L42.501 118.716L42.315 118.359L42.132 118.002L41.952 117.639L41.775 117.276L41.601 116.91L41.43 116.538L41.265 116.166L41.1 115.788L40.938 115.41L40.779 115.026L40.287 113.757L39.831 112.476L39.414 111.186L39.036 109.884L38.7 108.57L38.4 107.244L38.136 105.909L37.914 104.559L37.731 103.2L37.587 101.826L37.479 100.44L37.413 99.042L37.386 97.632L37.395 96.207L37.446 94.77L37.536 93.321L37.662 91.86L37.83 90.381L38.037 88.893L38.283 87.387L38.568 85.869L38.892 84.339L39.255 82.791L39.657 81.231L40.098 79.656L40.581 78.066L41.1 76.461L41.661 74.841L42.261 73.206L42.9 71.556L43.578 69.888L44.295 68.205L45.054 66.51L45.852 64.794L46.689 63.066L47.565 61.32L48.48 59.556L49.437 57.777L50.433 55.98L51.468 54.168L51.555 54.018L51.639 53.871L51.726 53.724L51.813 53.577L51.897 53.43L51.981 53.286L52.065 53.139L52.149 52.995L52.233 52.854L52.317 52.713L52.398 52.572L52.479 52.434L52.56 52.296L52.638 52.161L52.716 52.029L52.791 51.9L52.869 51.771L52.941 51.645L53.013 51.522L53.085 51.402L53.154 51.285L53.223 51.168L53.289 51.057L53.352 50.949L53.415 50.847L53.472 50.745L53.532 50.649L53.586 50.553L53.64 50.466L53.691 50.379L53.739 50.301L53.784 50.223L53.829 50.151L53.868 50.085L53.907 50.022L53.94 49.968L53.973 49.914L54 49.869L54.027 49.827L54.048 49.794L54.078 49.746L54.108 49.698L54.135 49.653L54.162 49.611L54.189 49.572L54.213 49.533L54.234 49.494L54.255 49.458L54.276 49.422L54.294 49.392L54.312 49.359L54.327 49.329L54.342 49.302L54.357 49.275L54.369 49.248L54.381 49.224L54.39 49.2L54.399 49.179L54.405 49.158L54.411 49.14L54.417 49.122L54.42 49.104L54.423 49.089V49.074V49.059V49.047L54.42 49.035L54.417 49.023L54.411 49.014L54.408 49.002L54.399 48.996L54.393 48.987L54.384 48.981L54.372 48.975L54.363 48.969L54.351 48.963L54.336 48.96L54.321 48.957L54.306 48.954L54.291 48.951L54.279 48.948H54.27L54.258 48.945H54.246L54.234 48.948H54.219L54.207 48.951L54.192 48.954L54.177 48.957L54.162 48.963L54.147 48.969L54.129 48.975L54.114 48.981L54.096 48.987L54.078 48.996L54.06 49.002L54.042 49.011L54.024 49.02L54.006 49.032L53.985 49.041L53.967 49.053L53.946 49.065L53.928 49.077L53.907 49.089L53.889 49.101L53.868 49.116L53.85 49.128L53.829 49.143L53.808 49.158L53.79 49.173L53.769 49.188L53.751 49.206L53.73 49.221L53.709 49.239L53.691 49.257L53.673 49.275L53.652 49.293L53.634 49.311L53.616 49.329L53.598 49.347L53.472 49.479L53.328 49.641L53.16 49.836L52.977 50.061L52.773 50.313L52.554 50.595L52.317 50.901L52.065 51.228L51.801 51.582L51.525 51.954L51.234 52.347L50.934 52.758L50.625 53.184L50.307 53.625L49.98 54.081L49.647 54.549L49.311 55.026L48.966 55.512L48.621 56.007L48.273 56.508L47.922 57.012L47.571 57.519L47.223 58.029L46.875 58.536L46.53 59.043L46.188 59.55L45.852 60.048L45.522 60.543L45.198 61.029L44.883 61.506L44.574 61.971L44.277 62.427L43.992 62.865L43.719 63.291L43.458 63.702L43.212 64.092L42.981 64.464L42.768 64.815L42.57 65.142L42.393 65.445L42.132 65.895L41.874 66.351L41.616 66.813L41.358 67.281L41.1 67.755L40.845 68.235L40.587 68.718L40.335 69.207L40.08 69.699L39.828 70.197L39.576 70.695L39.327 71.199L39.081 71.706L38.835 72.216L38.589 72.729L38.349 73.242L38.109 73.758L37.872 74.274L37.638 74.793L37.407 75.312L37.176 75.831L36.951 76.35L36.729 76.869L36.507 77.388L36.291 77.904L36.081 78.42L35.871 78.936L35.667 79.449L35.466 79.959L35.268 80.469L35.076 80.973L34.887 81.477L34.704 81.975L34.524 82.47L34.35 82.962L34.182 83.448L34.017 83.931L33.858 84.408L33.705 84.879L33.555 85.344L33.45 85.68L33.348 86.01L33.249 86.34L33.15 86.664L33.057 86.985L32.964 87.303L32.874 87.621L32.787 87.933L32.7 88.245L32.619 88.554L32.538 88.86L32.457 89.166L32.382 89.469L32.307 89.772L32.235 90.072L32.163 90.375L32.097 90.675L32.028 90.975L31.965 91.275L31.902 91.572L31.842 91.872L31.782 92.175L31.725 92.475L31.668 92.778L31.614 93.081L31.56 93.384L31.509 93.69L31.458 93.999L31.41 94.308L31.365 94.62L31.317 94.935L31.275 95.253L31.23 95.571L31.188 95.895L31.149 96.222L31.107 96.552L31.071 96.885L31.032 97.221L30.996 97.563L30.96 97.911L30.882 98.739L30.81 99.555L30.75 100.365L30.699 101.166L30.66 101.955L30.63 102.738L30.609 103.515L30.597 104.28V105.042L30.609 105.795L30.627 106.542L30.657 107.28L30.699 108.015L30.75 108.744L30.813 109.467L30.885 110.184L30.969 110.898L31.062 111.606L31.167 112.311L31.281 113.013L31.407 113.712L31.545 114.405L31.692 115.098L31.851 115.788L32.022 116.478L32.202 117.162L32.394 117.849L32.598 118.533L32.814 119.214L33.039 119.898L33.276 120.582L33.528 121.263L33.789 121.947L34.059 122.634L34.344 123.318L34.641 124.008L34.947 124.695L35.268 125.388L35.598 126.084L35.943 126.78L36.168 127.23L36.396 127.674L36.627 128.112L36.858 128.544L37.089 128.973L37.323 129.399L37.56 129.816L37.797 130.233L38.037 130.644L38.28 131.049L38.526 131.451L38.772 131.85L39.024 132.246L39.276 132.639L39.534 133.029L39.792 133.416L40.056 133.8L40.32 134.181L40.59 134.559L40.863 134.937L41.142 135.312L41.421 135.684L41.706 136.056L41.997 136.425L42.291 136.794L42.588 137.163L42.891 137.529L43.197 137.895L43.512 138.261L43.827 138.627L44.151 138.993L44.478 139.356L44.811 139.722L45.15 140.088L45.495 140.457L45.846 140.823L46.203 141.192L46.566 141.561L46.935 141.933L47.31 142.305L47.7 142.689L48.09 143.064L48.48 143.436L48.87 143.805L49.263 144.165L49.656 144.522L50.049 144.876L50.442 145.224L50.838 145.566L51.237 145.905L51.636 146.238L52.035 146.565L52.437 146.892L52.842 147.21L53.247 147.528L53.655 147.84L54.063 148.146L54.474 148.452L54.888 148.752L55.305 149.046L55.725 149.34L56.148 149.628L56.571 149.913L57 150.195L57.429 150.474L57.861 150.75L58.299 151.02L58.74 151.29L59.181 151.557L59.628 151.818L60.081 152.079L60.534 152.334L60.993 152.589L61.455 152.841L61.92 153.09L62.391 153.336L62.868 153.579L63.345 153.822L63.831 154.062L64.32 154.299L64.653 154.458L64.98 154.614L65.304 154.764L65.622 154.911L65.94 155.058L66.252 155.199L66.558 155.337L66.867 155.472L67.17 155.604L67.473 155.733L67.773 155.862L68.073 155.988L68.373 156.111L68.67 156.231L68.97 156.348L69.27 156.468L69.573 156.582L69.876 156.696L70.179 156.81L70.488 156.921L70.797 157.032L71.112 157.143L71.427 157.251L71.748 157.359L72.075 157.467L72.405 157.575L72.741 157.683L73.083 157.791L73.431 157.902L73.785 158.01L74.145 158.118L74.514 158.229L74.892 158.34L75.276 158.451L75.669 158.565L76.071 158.679L76.485 158.793L76.905 158.91L77.337 159.03L77.781 159.15L78.537 159.351L79.266 159.546L79.971 159.732L80.655 159.909L81.315 160.08L81.957 160.242L82.578 160.398L83.178 160.545L83.763 160.686L84.333 160.821L84.885 160.947L85.422 161.067L85.95 161.181L86.463 161.289L86.964 161.391L87.459 161.487L87.942 161.577L88.419 161.661L88.887 161.739L89.352 161.811L89.811 161.88L90.267 161.943L90.72 162.003L91.173 162.057L91.626 162.105L92.079 162.15L92.535 162.189L92.994 162.228L93.459 162.258L93.927 162.288L94.401 162.315L94.884 162.336L95.376 162.354L95.877 162.372L96.387 162.384L96.909 162.393L97.446 162.402L97.998 162.408L98.562 162.411H99.144H99.549L99.939 162.408H100.32L100.689 162.405L101.046 162.402L101.391 162.396L101.73 162.393L102.057 162.387L102.375 162.378L102.687 162.369L102.99 162.36L103.284 162.348L103.575 162.336L103.86 162.324L104.139 162.309L104.412 162.294L104.682 162.276L104.949 162.258L105.21 162.237L105.471 162.213L105.732 162.189L105.99 162.165L106.248 162.138L106.503 162.108L106.761 162.078L107.019 162.045L107.28 162.009L107.544 161.973L107.808 161.934L108.078 161.895L108.351 161.85L108.627 161.805L108.909 161.76L109.197 161.709L109.491 161.658L109.791 161.604L110.1 161.547L110.415 161.487L110.742 161.424L111.075 161.361L111.888 161.199L112.695 161.025L113.502 160.839L114.303 160.644L115.098 160.437L115.893 160.221L116.682 159.993L117.465 159.756L118.245 159.507L119.019 159.249L119.787 158.982L120.552 158.703L121.308 158.415L122.061 158.118L122.808 157.812L123.549 157.494L124.284 157.167L125.01 156.831L125.733 156.486L126.447 156.132L127.152 155.769L127.854 155.394L128.547 155.013L129.231 154.623L129.909 154.224L130.578 153.816L131.238 153.399L131.889 152.976L132.534 152.541L133.17 152.1L133.797 151.65L134.412 151.194L135.021 150.726L135.618 150.255L136.209 149.772L136.788 149.283L137.355 148.788L137.913 148.281L138.462 147.771L138.999 147.252L139.701 146.544L140.382 145.824L141.045 145.086L141.69 144.336L142.311 143.568L142.917 142.788L143.502 141.99L144.066 141.18L144.612 140.355L145.14 139.515L145.647 138.66L146.133 137.79L146.601 136.905L147.051 136.005L147.48 135.093L147.888 134.166L148.278 133.224L148.647 132.267L148.998 131.295L149.328 130.311L149.64 129.312L149.931 128.298L150.201 127.272L150.453 126.231L150.687 125.175L150.897 124.107L151.089 123.024L151.263 121.926L151.416 120.813L151.548 119.688L151.662 118.551L151.755 117.399L151.83 116.232L151.881 115.053L151.917 113.859L151.929 112.653L151.923 111.432L151.896 110.199L151.851 108.954L151.785 107.694L151.734 106.887L151.674 106.077L151.608 105.264L151.536 104.448L151.458 103.629L151.374 102.807L151.281 101.982L151.182 101.154L151.077 100.326L150.966 99.495L150.846 98.664L150.723 97.83L150.594 96.993L150.456 96.159L150.312 95.322L150.165 94.485L150.009 93.648L149.847 92.811L149.682 91.974L149.508 91.137L149.328 90.3L149.145 89.463L148.953 88.629L148.758 87.798L148.557 86.964L148.347 86.136L148.134 85.308L147.918 84.483L147.693 83.658L147.465 82.839L147.228 82.02L146.988 81.207L146.745 80.397L146.493 79.587L146.238 78.783L145.977 77.985L145.71 77.19L145.44 76.398L145.164 75.612L144.885 74.829L144.399 73.521L143.898 72.213L143.385 70.911L142.857 69.612L142.314 68.313L141.756 67.017L141.186 65.724L140.598 64.434L139.998 63.144L139.38 61.854L138.747 60.567L138.099 59.28L137.436 57.993L136.755 56.706L136.059 55.419L135.348 54.132L134.619 52.845L133.872 51.555L133.113 50.268L132.333 48.975L131.538 47.682L130.725 46.389L129.894 45.093L129.045 43.794L128.181 42.492L127.296 41.187L126.396 39.879L125.475 38.568L124.539 37.251L123.582 35.934L122.607 34.611L121.611 33.282L120.6 31.95L119.565 30.612L118.515 29.268L117.444 27.921L116.352 26.565L115.242 25.206L114.111 23.838L112.962 22.467L112.854 22.338L112.746 22.209L112.638 22.086L112.533 21.96L112.431 21.837L112.326 21.717L112.224 21.597L112.125 21.48L112.026 21.366L111.93 21.252L111.834 21.141L111.741 21.03L111.651 20.925L111.561 20.82L111.474 20.718L111.39 20.622L111.309 20.526L111.228 20.433L111.15 20.343L111.075 20.256L111.003 20.172L110.934 20.091L110.865 20.013L110.802 19.941L110.742 19.872L110.682 19.806L110.628 19.743L110.577 19.683L110.529 19.629L110.484 19.581L110.445 19.533L110.406 19.494L110.373 19.455L110.343 19.425L110.319 19.395L110.298 19.374L110.28 19.356L110.265 19.344L110.256 19.335L110.253 19.332L110.25 19.335L110.253 19.338ZM62.451 87.15L62.49 87.441L62.538 87.732L62.589 88.02L62.646 88.305L62.712 88.587L62.781 88.866L62.856 89.145L62.937 89.421L63.024 89.694L63.12 89.967L63.219 90.237L63.324 90.504L63.435 90.771L63.552 91.035L63.675 91.296L63.804 91.554L63.939 91.812L64.08 92.07L64.23 92.325L64.383 92.577L64.542 92.829L64.71 93.078L64.881 93.324L65.058 93.57L65.244 93.816L65.436 94.059L65.631 94.299L65.835 94.539L66.045 94.779L66.261 95.016L66.483 95.253L66.711 95.487L66.948 95.721L67.188 95.955L67.437 96.183L67.689 96.411L67.944 96.633L68.205 96.852L68.469 97.068L68.736 97.281L69.009 97.488L69.285 97.692L69.564 97.893L69.846 98.091L70.131 98.283L70.419 98.472L70.713 98.658L71.007 98.838L71.307 99.015L71.61 99.186L71.913 99.357L72.222 99.522L72.534 99.681L72.846 99.837L73.161 99.99L73.482 100.137L73.803 100.281L74.127 100.419L74.451 100.554L74.781 100.683L75.111 100.809L75.444 100.932L75.78 101.046L76.116 101.16L76.455 101.265L76.797 101.37L77.139 101.466L77.484 101.559L77.829 101.649L77.877 101.661L77.922 101.673L77.97 101.685L78.018 101.697L78.063 101.709L78.108 101.721L78.156 101.733L78.201 101.745L78.246 101.757L78.291 101.769L78.333 101.781L78.378 101.79L78.42 101.802L78.462 101.814L78.501 101.826L78.54 101.835L78.579 101.847L78.618 101.856L78.654 101.865L78.69 101.877L78.726 101.886L78.759 101.895L78.792 101.904L78.822 101.913L78.852 101.919L78.879 101.928L78.906 101.937L78.93 101.943L78.954 101.949L78.975 101.955L78.996 101.961L79.014 101.967L79.029 101.973L79.044 101.979L79.056 101.982L79.074 101.991L79.08 102.006L79.077 102.027L79.062 102.051L79.041 102.081L79.008 102.114L78.969 102.153L78.921 102.192L78.867 102.237L78.807 102.282L78.741 102.33L78.669 102.381L78.591 102.432L78.51 102.486L78.426 102.54L78.339 102.597L78.249 102.651L78.156 102.708L78.063 102.762L77.967 102.816L77.874 102.87L77.778 102.924L77.685 102.972L77.592 103.02L77.502 103.068L77.415 103.11L77.331 103.149L77.25 103.188L77.172 103.221L77.1 103.248L77.034 103.272L76.971 103.293L76.917 103.305L76.869 103.314L76.83 103.317H76.791L76.74 103.311L76.68 103.302L76.611 103.29L76.53 103.275L76.44 103.257L76.344 103.236L76.239 103.212L76.125 103.188L76.008 103.158L75.882 103.128L75.75 103.095L75.615 103.062L75.474 103.026L75.327 102.987L75.177 102.948L75.027 102.909L74.871 102.867L74.715 102.822L74.559 102.78L74.4 102.735L74.241 102.69L74.082 102.642L73.923 102.597L73.767 102.552L73.611 102.504L73.458 102.459L73.308 102.411L73.161 102.366L73.017 102.321L72.879 102.276L72.744 102.234L72.618 102.192L72.495 102.15L72.381 102.108L72.096 102.009L71.811 101.904L71.529 101.793L71.244 101.676L70.959 101.559L70.677 101.433L70.392 101.307L70.11 101.175L69.831 101.037L69.552 100.899L69.276 100.755L69 100.611L68.73 100.461L68.46 100.311L68.193 100.155L67.929 99.999L67.671 99.837L67.413 99.675L67.161 99.513L66.915 99.345L66.672 99.18L66.432 99.009L66.201 98.838L65.973 98.667L65.751 98.496L65.535 98.322L65.325 98.148L65.121 97.971L64.923 97.797L64.734 97.623L64.551 97.446L64.377 97.272L64.209 97.098L64.05 96.921L63.9 96.75L63.813 96.645L63.726 96.54L63.639 96.429L63.555 96.318L63.471 96.207L63.387 96.09L63.303 95.973L63.219 95.856L63.138 95.733L63.06 95.613L62.979 95.49L62.901 95.364L62.826 95.241L62.751 95.115L62.676 94.989L62.604 94.863L62.532 94.734L62.466 94.608L62.397 94.479L62.334 94.353L62.271 94.227L62.208 94.101L62.151 93.975L62.094 93.852L62.04 93.729L61.986 93.606L61.938 93.483L61.89 93.363L61.848 93.246L61.806 93.129L61.767 93.015L61.731 92.904L61.698 92.793L61.668 92.685L61.641 92.58L61.62 92.484L61.602 92.382L61.584 92.277L61.572 92.169L61.557 92.055L61.548 91.938L61.539 91.818L61.533 91.692L61.53 91.566L61.527 91.431V91.296L61.53 91.155L61.533 91.011L61.539 90.864L61.548 90.711L61.557 90.555L61.572 90.396L61.584 90.231L61.602 90.066L61.62 89.895L61.641 89.718L61.665 89.538L61.692 89.355L61.719 89.169L61.749 88.977L61.779 88.782L61.812 88.584L61.848 88.383L61.887 88.176L61.926 87.966L61.968 87.75L62.013 87.534L62.058 87.312L62.109 87.084L62.157 86.856L62.367 86.379L62.415 86.856L62.451 87.15Z" fill="#714F91"/>
<path fill-rule="evenodd" clip-rule="evenodd" d="M110.253 19.338L110.256 19.347L110.262 19.362L110.271 19.377L110.28 19.395L110.292 19.419L110.307 19.443L110.322 19.473L110.343 19.506L110.364 19.539L110.385 19.578L110.409 19.617L110.436 19.662L110.463 19.707L110.493 19.755L110.526 19.806L110.559 19.86L110.592 19.917L110.628 19.974L110.667 20.034L110.706 20.097L110.748 20.163L110.79 20.229L110.835 20.298L110.88 20.367L110.925 20.439L110.973 20.514L111.021 20.589L111.072 20.667L111.123 20.745L111.174 20.826L111.228 20.907L111.282 20.991L111.336 21.075L111.393 21.159L111.447 21.246L111.507 21.333L111.564 21.423L111.624 21.51L112.686 23.172L113.724 24.837L114.735 26.505L115.725 28.176L116.691 29.85L117.63 31.524L118.545 33.201L119.436 34.881L120.303 36.558L121.143 38.238L121.956 39.915L122.745 41.592L123.51 43.269L124.248 44.946L124.959 46.617L125.646 48.288L126.306 49.956L126.939 51.621L127.545 53.283L128.124 54.939L128.679 56.592L129.204 58.239L129.702 59.88L130.173 61.518L130.62 63.147L131.034 64.77L131.424 66.387L131.784 67.995L132.117 69.594L132.423 71.187L132.699 72.771L132.948 74.346L133.167 75.909L133.356 77.463L133.518 79.008L133.653 80.541L133.755 82.062L133.83 83.571L133.875 85.068L133.89 86.553L133.881 87.564L133.863 88.569L133.83 89.565L133.785 90.555L133.725 91.536L133.653 92.508L133.566 93.474L133.467 94.434L133.356 95.385L133.23 96.327L133.092 97.263L132.942 98.193L132.774 99.114L132.597 100.029L132.405 100.938L132.198 101.838L131.979 102.732L131.748 103.62L131.499 104.502L131.241 105.375L130.968 106.245L130.68 107.106L130.38 107.961L130.065 108.81L129.738 109.653L129.396 110.49L129.039 111.321L128.67 112.146L128.286 112.965L127.89 113.778L127.479 114.585L127.053 115.386L126.615 116.184L126.162 116.976L125.694 117.759L125.214 118.542L124.719 119.316L124.212 120.087L123.687 120.852L123.15 121.611L123.021 121.791L122.895 121.965L122.778 122.13L122.664 122.283L122.556 122.433L122.454 122.571L122.358 122.703L122.265 122.829L122.175 122.946L122.091 123.057L122.01 123.165L121.932 123.264L121.857 123.357L121.785 123.444L121.713 123.528L121.644 123.606L121.578 123.678L121.512 123.747L121.446 123.813L121.383 123.876L121.32 123.933L121.257 123.99L121.191 124.041L121.128 124.092L121.062 124.14L120.996 124.185L120.927 124.23L120.858 124.272L120.783 124.314L120.708 124.356L120.63 124.395L120.549 124.437L120.465 124.476L120.378 124.518L120.285 124.56L120.189 124.605L120.087 124.647L119.979 124.695L119.868 124.743L119.748 124.791L119.301 124.98L118.851 125.163L118.392 125.34L117.933 125.514L117.468 125.682L117 125.844L116.529 126.003L116.058 126.156L115.581 126.306L115.101 126.447L114.618 126.588L114.135 126.72L113.652 126.849L113.166 126.969L112.677 127.089L112.188 127.2L111.699 127.305L111.21 127.407L110.721 127.503L110.229 127.593L109.74 127.677L109.254 127.758L108.765 127.83L108.279 127.899L107.793 127.959L107.31 128.016L106.83 128.067L106.35 128.109L105.873 128.148L105.399 128.181L104.928 128.208L104.46 128.226L103.998 128.241L103.536 128.25H103.08L102.627 128.247L102.18 128.235L101.739 128.217L101.301 128.193L100.869 128.163L100.203 128.106L99.54 128.034L98.88 127.95L98.22 127.854L97.563 127.749L96.912 127.629L96.264 127.497L95.619 127.356L94.98 127.203L94.347 127.041L93.717 126.864L93.096 126.681L92.481 126.486L91.869 126.279L91.269 126.063L90.672 125.838L90.087 125.604L89.508 125.361L88.938 125.109L88.377 124.845L87.828 124.575L87.285 124.296L86.757 124.008L86.238 123.714L85.728 123.408L85.233 123.096L84.747 122.778L84.276 122.451L83.817 122.118L83.37 121.779L82.938 121.431L82.521 121.077L82.116 120.717L81.729 120.351L81.354 119.976L80.997 119.598L80.655 119.214L80.331 118.827L80.022 118.431L79.731 118.032L79.611 117.858L79.494 117.684L79.38 117.516L79.272 117.348L79.167 117.18L79.065 117.015L78.969 116.853L78.876 116.688L78.786 116.529L78.699 116.367L78.618 116.208L78.54 116.052L78.465 115.893L78.393 115.734L78.327 115.578L78.261 115.422L78.201 115.263L78.144 115.107L78.09 114.951L78.039 114.792L77.991 114.636L77.949 114.477L77.907 114.318L77.868 114.156L77.835 113.994L77.802 113.832L77.775 113.667L77.748 113.502L77.724 113.334L77.706 113.166L77.688 112.995L77.673 112.824L77.661 112.647L77.652 112.47L77.646 112.29L77.643 112.11L77.64 111.924L77.643 111.735L77.646 111.546L77.652 111.351L77.661 111.195L77.67 111.039L77.679 110.889L77.691 110.742L77.706 110.598L77.721 110.454L77.736 110.316L77.754 110.181L77.775 110.046L77.796 109.914L77.817 109.785L77.841 109.656L77.868 109.533L77.895 109.41L77.925 109.287L77.958 109.17L77.991 109.05L78.024 108.936L78.063 108.819L78.102 108.708L78.144 108.594L78.186 108.483L78.231 108.375L78.279 108.264L78.33 108.156L78.381 108.048L78.435 107.943L78.492 107.835L78.549 107.73L78.612 107.625L78.675 107.52L78.741 107.415L78.81 107.31L78.879 107.202L78.954 107.097L79.029 106.992L79.11 106.887L79.191 106.779L79.275 106.671L79.362 106.563L80.136 105.624L81.087 105.594L81.513 105.573L81.936 105.552L82.35 105.531L82.755 105.504L83.157 105.477L83.55 105.447L83.94 105.414L84.321 105.378L84.696 105.342L85.068 105.303L85.431 105.261L85.791 105.216L86.148 105.168L86.496 105.117L86.841 105.066L87.183 105.009L87.519 104.952L87.852 104.892L88.182 104.826L88.506 104.76L88.83 104.691L89.148 104.616L89.463 104.541L89.775 104.463L90.084 104.379L90.393 104.295L90.699 104.208L91.002 104.115L91.302 104.019L91.602 103.923L91.899 103.821L92.196 103.716L92.493 103.608L92.787 103.494L93.081 103.38L93.375 103.26L93.669 103.137L93.963 103.011L94.254 102.879L94.548 102.747L94.659 102.693L94.77 102.639L94.887 102.585L95.007 102.525L95.127 102.465L95.25 102.402L95.376 102.339L95.502 102.273L95.631 102.207L95.76 102.138L95.889 102.069L96.018 102L96.147 101.931L96.276 101.859L96.405 101.79L96.531 101.718L96.657 101.649L96.78 101.58L96.903 101.511L97.023 101.442L97.14 101.373L97.251 101.307L97.362 101.241L97.47 101.178L97.572 101.118L97.671 101.058L97.764 100.998L97.854 100.944L97.938 100.89L98.016 100.839L98.088 100.791L98.154 100.746L98.214 100.707L98.265 100.668L98.31 100.632L98.349 100.602L98.379 100.575L98.4 100.551L98.415 100.533L98.418 100.518L98.415 100.515H98.409L98.403 100.518H98.394L98.385 100.521L98.373 100.524L98.358 100.53L98.343 100.533L98.325 100.539L98.307 100.548L98.286 100.554L98.265 100.563L98.241 100.572L98.217 100.581L98.19 100.593L98.163 100.605L98.136 100.617L98.106 100.629L98.073 100.641L98.04 100.656L98.007 100.671L97.974 100.686L97.938 100.701L97.902 100.719L97.863 100.737L97.824 100.752L97.785 100.77L97.746 100.791L97.704 100.809L97.662 100.83L97.62 100.851L97.575 100.869L97.533 100.893L97.488 100.914L97.443 100.935L97.398 100.959L97.35 100.98L97.305 101.004L97.257 101.028L96.969 101.169L96.681 101.307L96.393 101.439L96.108 101.568L95.82 101.694L95.535 101.817L95.247 101.934L94.962 102.048L94.677 102.159L94.389 102.264L94.101 102.369L93.813 102.468L93.525 102.564L93.234 102.654L92.943 102.744L92.652 102.828L92.358 102.912L92.061 102.99L91.764 103.065L91.464 103.134L91.164 103.203L90.861 103.269L90.555 103.329L90.249 103.389L89.937 103.443L89.625 103.494L89.31 103.545L88.989 103.59L88.668 103.632L88.344 103.671L88.014 103.707L87.681 103.743L87.345 103.773L87.006 103.8L86.661 103.824L86.313 103.848L85.959 103.866L85.602 103.881L85.242 103.896L84.876 103.908L81.732 103.986L83.181 102.555L85.359 102.381L85.515 102.366L85.677 102.354L85.839 102.336L86.004 102.321L86.172 102.3L86.34 102.282L86.511 102.261L86.682 102.237L86.853 102.213L87.024 102.189L87.198 102.165L87.369 102.138L87.54 102.111L87.711 102.081L87.882 102.054L88.05 102.024L88.218 101.994L88.383 101.961L88.545 101.931L88.707 101.898L88.863 101.865L89.019 101.832L89.172 101.799L89.319 101.766L89.463 101.733L89.601 101.7L89.739 101.667L89.868 101.634L89.994 101.598L90.114 101.565L90.228 101.532L90.336 101.499L90.438 101.466L90.534 101.433L90.624 101.403L90.705 101.37L90.777 101.34L90.846 101.31L90.903 101.28L90.954 101.25L90.972 101.238L90.99 101.229L91.008 101.217L91.023 101.208L91.038 101.196L91.05 101.187L91.062 101.181L91.074 101.172L91.086 101.163L91.095 101.157L91.104 101.151L91.11 101.145L91.116 101.139L91.122 101.133L91.125 101.13L91.128 101.124V101.121V101.118V101.115V101.112H91.125L91.119 101.109H91.113H91.107H91.101H91.092H91.08H91.071L91.059 101.112L91.044 101.115H91.029L91.014 101.118L90.996 101.121L90.978 101.127L90.957 101.13L90.936 101.133L90.915 101.139L90.891 101.145L90.867 101.148L90.84 101.154L90.693 101.184L90.549 101.214L90.405 101.241L90.261 101.268L90.12 101.295L89.979 101.319L89.841 101.343L89.703 101.367L89.565 101.391L89.43 101.412L89.298 101.433L89.163 101.454L89.034 101.472L88.902 101.49L88.773 101.508L88.644 101.526L88.518 101.544L88.392 101.559L88.269 101.574L88.146 101.586L88.023 101.598L87.903 101.613L87.783 101.622L87.666 101.634L87.549 101.643L87.432 101.652L87.318 101.661L87.204 101.667L87.09 101.676L86.979 101.682L86.868 101.685L86.76 101.691L86.652 101.694L86.544 101.697H86.439L86.334 101.7H86.229H86.127L86.025 101.697H85.923L84.342 101.649L85.536 100.98L85.704 100.887L85.875 100.797L86.049 100.71L86.226 100.623L86.403 100.539L86.583 100.455L86.766 100.374L86.949 100.293L87.138 100.215L87.33 100.14L87.525 100.065L87.723 99.99L87.924 99.918L88.128 99.849L88.335 99.78L88.548 99.711L88.764 99.645L88.983 99.579L89.208 99.516L89.436 99.453L89.67 99.393L89.907 99.33L90.15 99.273L90.396 99.213L90.648 99.156L90.906 99.102L91.167 99.045L91.434 98.991L91.707 98.94L91.986 98.886L92.271 98.835L92.562 98.784L92.859 98.733L93.162 98.685L93.471 98.637L93.786 98.589L94.107 98.541L94.437 98.496L94.77 98.448L95.112 98.403L95.316 98.376L95.505 98.352L95.685 98.325L95.85 98.304L96.003 98.28L96.141 98.259L96.27 98.241L96.387 98.223L96.492 98.205L96.582 98.19L96.663 98.175L96.729 98.16L96.786 98.148L96.831 98.139L96.864 98.127L96.885 98.121L96.894 98.112L96.891 98.106L96.879 98.103L96.855 98.1L96.819 98.097H96.771H96.714L96.645 98.1L96.564 98.103L96.474 98.106L96.372 98.112L96.258 98.118L96.135 98.127L96.003 98.136L95.859 98.148L95.703 98.16L95.538 98.175L95.361 98.19L95.178 98.205L94.98 98.223L94.776 98.241L94.56 98.262L94.332 98.286L94.098 98.307L93.717 98.349L93.339 98.391L92.964 98.433L92.589 98.478L92.22 98.526L91.854 98.574L91.488 98.625L91.128 98.676L90.771 98.73L90.414 98.784L90.063 98.841L89.715 98.901L89.37 98.961L89.028 99.021L88.689 99.084L88.356 99.147L88.023 99.213L87.696 99.282L87.375 99.348L87.054 99.42L86.739 99.492L86.427 99.564L86.118 99.636L85.815 99.714L85.515 99.789L85.221 99.867L84.93 99.948L84.642 100.029L84.36 100.11L84.084 100.194L83.811 100.278L83.541 100.365L83.277 100.452L83.019 100.539L82.764 100.629L82.515 100.719L82.272 100.809L82.032 100.902L81.798 100.995L81.57 101.091L81.513 101.115L81.456 101.139L81.402 101.16L81.348 101.181L81.294 101.199L81.24 101.214L81.186 101.229L81.135 101.244L81.081 101.256L81.027 101.265L80.973 101.274L80.919 101.283L80.862 101.286L80.805 101.289L80.745 101.292H80.685L80.622 101.289L80.559 101.286L80.49 101.28L80.421 101.271L80.349 101.262L80.274 101.25L80.196 101.238L80.115 101.223L80.028 101.205L79.941 101.184L79.848 101.163L79.752 101.139L79.65 101.112L79.542 101.085L79.431 101.055L79.317 101.022L79.194 100.986L79.068 100.95L78.936 100.911L78.798 100.869L78.654 100.824L78.504 100.779L78.348 100.728L78.183 100.677L77.943 100.599L77.7 100.518L77.457 100.434L77.214 100.344L76.971 100.251L76.728 100.155L76.485 100.059L76.242 99.957L75.999 99.852L75.756 99.744L75.516 99.63L75.273 99.516L75.033 99.399L74.796 99.279L74.556 99.159L74.319 99.033L74.082 98.904L73.848 98.772L73.614 98.64L73.383 98.505L73.155 98.367L72.924 98.226L72.699 98.082L72.474 97.938L72.252 97.791L72.03 97.641L71.814 97.491L71.598 97.338L71.385 97.182L71.175 97.026L70.965 96.867L70.761 96.705L70.56 96.543L70.359 96.378L70.164 96.213L69.972 96.048L69.783 95.877L69.597 95.709L69.414 95.538L69.237 95.364L68.979 95.109L68.73 94.851L68.49 94.593L68.256 94.338L68.031 94.083L67.815 93.828L67.605 93.573L67.404 93.321L67.212 93.069L67.029 92.817L66.852 92.565L66.684 92.313L66.525 92.064L66.372 91.815L66.231 91.566L66.096 91.317L65.967 91.071L65.85 90.825L65.739 90.582L65.637 90.336L65.544 90.093L65.457 89.85L65.379 89.61L65.31 89.37L65.25 89.13L65.199 88.893L65.154 88.656L65.118 88.419L65.091 88.185L65.073 87.951L65.064 87.717L65.061 87.486L65.067 87.255L65.082 87.027L65.106 86.799L65.139 86.571L65.178 86.346L65.226 86.121L65.286 85.899L65.349 85.677L65.382 85.575L65.418 85.473L65.451 85.374L65.484 85.275L65.52 85.179L65.556 85.086L65.592 84.993L65.631 84.9L65.667 84.813L65.709 84.723L65.748 84.636L65.79 84.552L65.832 84.468L65.874 84.384L65.919 84.3L65.967 84.219L66.015 84.138L66.063 84.06L66.114 83.979L66.165 83.901L66.219 83.823L66.273 83.745L66.33 83.667L66.387 83.589L66.45 83.511L66.51 83.433L66.576 83.355L66.642 83.277L66.708 83.199L66.78 83.118L66.852 83.04L66.927 82.959L67.002 82.878L67.08 82.797L67.164 82.716L67.248 82.632L67.332 82.548L67.422 82.464L67.515 82.377L67.608 82.29L67.761 82.149L67.917 82.011L68.07 81.876L68.229 81.744L68.385 81.618L68.544 81.492L68.706 81.372L68.868 81.255L69.033 81.138L69.201 81.027L69.372 80.916L69.543 80.808L69.72 80.706L69.897 80.604L70.08 80.505L70.266 80.406L70.455 80.313L70.65 80.22L70.845 80.13L71.049 80.04L71.253 79.956L71.466 79.869L71.682 79.788L71.904 79.707L72.129 79.626L72.363 79.548L72.6 79.473L72.843 79.398L73.095 79.323L73.35 79.251L73.614 79.179L73.884 79.107L74.16 79.038L74.445 78.969L74.736 78.9L75.036 78.834L75.345 78.765L75.66 78.699L75.981 78.633L76.314 78.567L76.431 78.546L76.548 78.522L76.662 78.501L76.776 78.477L76.89 78.456L77.001 78.435L77.109 78.411L77.22 78.39L77.325 78.369L77.43 78.348L77.535 78.327L77.637 78.306L77.736 78.285L77.832 78.267L77.928 78.246L78.021 78.228L78.114 78.21L78.201 78.192L78.288 78.174L78.369 78.156L78.45 78.138L78.528 78.123L78.603 78.108L78.672 78.093L78.741 78.078L78.807 78.063L78.867 78.051L78.924 78.039L78.981 78.027L79.029 78.015L79.077 78.006L79.119 77.994L79.158 77.985L79.194 77.979L79.224 77.97L79.251 77.964L79.275 77.958L79.29 77.955L79.305 77.949L79.314 77.946L79.332 77.937L79.344 77.928L79.341 77.919L79.332 77.913L79.311 77.907L79.284 77.904L79.245 77.901L79.2 77.898H79.146L79.083 77.901L79.014 77.904L78.936 77.907L78.852 77.91L78.762 77.916L78.666 77.925L78.564 77.934L78.456 77.943L78.342 77.952L78.225 77.964L78.102 77.976L77.976 77.988L77.844 78.003L77.709 78.018L77.571 78.033L77.43 78.048L77.289 78.066L77.142 78.084L76.995 78.102L76.845 78.12L76.695 78.141L76.542 78.159L76.389 78.18L76.236 78.201L76.086 78.222L75.933 78.246L75.78 78.267L75.63 78.291L75.48 78.315L75.333 78.336L75.186 78.36L74.571 78.465L73.968 78.576L73.377 78.69L72.795 78.807L72.225 78.93L71.667 79.059L71.121 79.191L70.584 79.329L70.059 79.47L69.543 79.617L69.042 79.77L68.55 79.926L68.067 80.088L67.596 80.256L67.134 80.427L66.687 80.601L66.246 80.784L65.817 80.97L65.4 81.162L64.992 81.357L64.593 81.558L64.206 81.765L63.831 81.978L63.462 82.194L63.108 82.416L62.76 82.644L62.424 82.875L62.097 83.115L61.779 83.358L61.473 83.607L61.176 83.859L60.888 84.12L60.612 84.384L60.342 84.654L60.084 84.93L59.835 85.212L59.595 85.5L59.367 85.791L59.145 86.091L58.935 86.394L58.854 86.514L58.776 86.631L58.701 86.748L58.629 86.862L58.56 86.979L58.494 87.093L58.428 87.207L58.365 87.321L58.305 87.435L58.248 87.546L58.194 87.66L58.14 87.771L58.089 87.885L58.041 87.999L57.993 88.11L57.948 88.224L57.906 88.338L57.867 88.452L57.828 88.569L57.792 88.683L57.756 88.8L57.723 88.92L57.693 89.037L57.666 89.157L57.639 89.277L57.612 89.4L57.591 89.526L57.567 89.649L57.549 89.778L57.531 89.907L57.513 90.036L57.498 90.168L57.486 90.303L57.474 90.441L57.465 90.579L57.456 90.72L57.447 90.864L57.441 91.008L57.438 91.158L57.435 91.308L57.432 91.407V91.5V91.593V91.68V91.767V91.851L57.435 91.929V92.01L57.438 92.085L57.441 92.16L57.444 92.232L57.447 92.301L57.45 92.37L57.456 92.439L57.462 92.505L57.468 92.568L57.474 92.631L57.48 92.694L57.489 92.754L57.498 92.817L57.507 92.877L57.516 92.934L57.525 92.994L57.537 93.054L57.549 93.111L57.561 93.171L57.576 93.228L57.591 93.288L57.606 93.348L57.621 93.408L57.639 93.468L57.657 93.528L57.678 93.591L57.696 93.654L57.717 93.717L57.738 93.783L57.762 93.849L57.786 93.918L57.81 93.99L57.837 94.062L57.93 94.314L58.029 94.566L58.134 94.815L58.245 95.061L58.362 95.307L58.485 95.553L58.614 95.793L58.749 96.033L58.89 96.27L59.037 96.507L59.19 96.741L59.349 96.972L59.514 97.2L59.685 97.428L59.862 97.653L60.042 97.875L60.231 98.094L60.423 98.313L60.624 98.529L60.828 98.742L61.038 98.952L61.254 99.159L61.476 99.366L61.701 99.567L61.935 99.768L62.172 99.966L62.415 100.161L62.661 100.353L62.916 100.545L63.174 100.731L63.438 100.914L63.708 101.097L63.981 101.274L64.26 101.451L64.545 101.625L64.836 101.793L65.13 101.961L65.43 102.126L65.733 102.285L66.045 102.444L66.201 102.522L66.36 102.6L66.522 102.678L66.684 102.756L66.852 102.831L67.02 102.909L67.191 102.984L67.365 103.059L67.539 103.131L67.716 103.206L67.893 103.278L68.073 103.35L68.253 103.419L68.436 103.491L68.619 103.56L68.802 103.626L68.988 103.695L69.171 103.758L69.357 103.824L69.543 103.887L69.732 103.95L69.918 104.01L70.104 104.07L70.29 104.127L70.479 104.184L70.665 104.238L70.848 104.292L71.034 104.343L71.217 104.394L71.4 104.442L71.583 104.49L71.763 104.535L71.943 104.58L72.123 104.622L72.3 104.661L72.474 104.697L72.648 104.733L72.819 104.769L72.987 104.799L73.155 104.829L74.718 105.099L73.749 106.119L73.554 106.329L73.362 106.542L73.176 106.752L72.993 106.965L72.819 107.178L72.648 107.394L72.48 107.607L72.321 107.823L72.165 108.039L72.015 108.255L71.868 108.471L71.727 108.69L71.592 108.906L71.463 109.128L71.337 109.347L71.217 109.566L71.1 109.788L70.992 110.01L70.887 110.235L70.785 110.457L70.692 110.682L70.602 110.91L70.515 111.135L70.434 111.363L70.359 111.594L70.29 111.822L70.224 112.053L70.164 112.287L70.107 112.521L70.056 112.755L70.011 112.989L69.969 113.226L69.933 113.466L69.903 113.706L69.876 113.946L69.855 114.186L69.837 114.429L69.825 114.675L69.819 114.921L69.816 115.17L69.819 115.446L69.828 115.722L69.843 115.995L69.864 116.268L69.894 116.538L69.927 116.808L69.966 117.075L70.014 117.345L70.068 117.609L70.128 117.876L70.194 118.14L70.266 118.404L70.344 118.668L70.431 118.932L70.524 119.193L70.623 119.457L70.731 119.718L70.842 119.982L70.962 120.243L71.091 120.504L71.223 120.768L71.364 121.032L71.514 121.293L71.67 121.557L71.832 121.824L72.003 122.088L72.18 122.355L72.363 122.622L72.555 122.889L72.756 123.159L72.963 123.429L73.176 123.702L73.398 123.975L73.629 124.248L73.866 124.527L74.109 124.803L74.364 125.085L74.625 125.367L74.892 125.652L75.168 125.937L75.51 126.279L75.861 126.618L76.218 126.954L76.584 127.284L76.956 127.611L77.337 127.935L77.727 128.253L78.12 128.568L78.525 128.877L78.933 129.183L79.353 129.483L79.776 129.78L80.208 130.074L80.643 130.359L81.09 130.641L81.54 130.92L81.996 131.193L82.458 131.46L82.929 131.724L83.403 131.982L83.886 132.234L84.372 132.483L84.864 132.723L85.362 132.96L85.866 133.194L86.376 133.419L86.889 133.638L87.408 133.854L87.93 134.064L88.461 134.268L88.992 134.466L89.532 134.658L90.075 134.844L90.621 135.024L91.17 135.198L91.725 135.366L92.286 135.528L92.847 135.681L93.414 135.831L93.984 135.975L94.026 135.984L94.056 135.993L94.074 136.005L94.083 136.011L94.08 136.02L94.068 136.026L94.047 136.032L94.017 136.038L93.978 136.044L93.93 136.05L93.876 136.053L93.813 136.056L93.744 136.059L93.666 136.062H93.582L93.492 136.065H93.399H93.297L93.192 136.062H93.084L92.97 136.059L92.853 136.056L92.733 136.053L92.61 136.05L92.484 136.044L92.355 136.041L92.226 136.035L92.094 136.029L91.962 136.023L91.827 136.014L91.695 136.008L91.563 135.999L91.431 135.99L91.299 135.981L91.167 135.969L91.041 135.96L90.912 135.948L90.789 135.936L90.669 135.924L90.549 135.912L89.931 135.837L89.313 135.756L88.695 135.66L88.077 135.555L87.462 135.438L86.847 135.309L86.235 135.171L85.623 135.021L85.014 134.859L84.408 134.688L83.802 134.505L83.199 134.313L82.596 134.109L81.999 133.896L81.402 133.671L80.808 133.434L80.214 133.191L79.626 132.933L79.041 132.669L78.456 132.39L77.877 132.105L77.298 131.808L76.725 131.502L76.155 131.184L75.585 130.857L75.021 130.521L74.463 130.173L73.905 129.816L73.353 129.45L72.804 129.075L72.261 128.688L71.721 128.295L71.184 127.89L70.653 127.476L70.125 127.05L69.603 126.618L69.084 126.174L68.571 125.724L68.061 125.262L67.56 124.791L67.008 124.26L66.465 123.72L65.931 123.171L65.406 122.61L64.89 122.046L64.383 121.47L63.888 120.888L63.399 120.297L62.922 119.697L62.454 119.091L61.998 118.479L61.548 117.858L61.11 117.231L60.684 116.595L60.264 115.956L59.859 115.308L59.46 114.657L59.073 113.997L58.698 113.331L58.332 112.662L57.978 111.987L57.636 111.303L57.303 110.619L56.982 109.929L56.673 109.233L56.373 108.531L56.085 107.829L55.809 107.121L55.545 106.407L55.293 105.693L55.053 104.973L54.825 104.25L54.606 103.524L54.402 102.795L54.21 102.063L54.03 101.328L53.862 100.593L53.709 99.855L53.565 99.114L53.436 98.37L53.298 97.482L53.178 96.591L53.079 95.703L52.998 94.815L52.938 93.93L52.896 93.045L52.872 92.163L52.869 91.284L52.884 90.405L52.917 89.532L52.968 88.659L53.04 87.789L53.13 86.922L53.238 86.058L53.364 85.2L53.508 84.342L53.673 83.49L53.856 82.641L54.054 81.795L54.273 80.955L54.51 80.118L54.765 79.284L55.041 78.459L55.332 77.637L55.641 76.818L55.968 76.008L56.313 75.201L56.676 74.4L57.06 73.605L57.459 72.819L57.876 72.036L58.308 71.259L58.761 70.491L59.232 69.726L59.718 68.97L60.222 68.223L60.744 67.482L61.284 66.747L61.842 66.021L62.415 65.301L62.67 64.992L62.934 64.68L63.204 64.368L63.48 64.053L63.765 63.735L64.059 63.417L64.356 63.099L64.662 62.778L64.971 62.457L65.289 62.136L65.61 61.815L65.94 61.494L66.27 61.173L66.609 60.852L66.951 60.534L67.296 60.216L67.644 59.898L67.998 59.583L68.352 59.268L68.712 58.956L69.075 58.647L69.438 58.341L69.804 58.038L70.173 57.735L70.542 57.438L70.911 57.144L71.283 56.853L71.655 56.568L72.027 56.286L72.402 56.007L72.774 55.734L73.146 55.467L73.518 55.203L73.887 54.948L74.256 54.696L74.625 54.45L74.991 54.21L75.354 53.976L75.714 53.751L76.071 53.532L76.131 53.496L76.188 53.463L76.242 53.427L76.299 53.394L76.353 53.361L76.407 53.328L76.461 53.295L76.512 53.262L76.563 53.232L76.611 53.199L76.662 53.169L76.707 53.139L76.755 53.109L76.8 53.079L76.842 53.049L76.887 53.022L76.926 52.995L76.968 52.968L77.004 52.941L77.043 52.917L77.076 52.893L77.109 52.869L77.142 52.845L77.172 52.824L77.202 52.803L77.229 52.785L77.253 52.764L77.277 52.746L77.298 52.731L77.316 52.716L77.334 52.701L77.349 52.686L77.364 52.674L77.373 52.662L77.382 52.653L77.391 52.644L77.394 52.638L77.397 52.632V52.626L77.394 52.623L77.385 52.617L77.37 52.614H77.349L77.325 52.617L77.298 52.62L77.262 52.626L77.226 52.635L77.184 52.647L77.136 52.662L77.085 52.677L77.031 52.695L76.974 52.713L76.911 52.737L76.845 52.761L76.776 52.785L76.701 52.815L76.626 52.845L76.548 52.875L76.464 52.908L76.38 52.944L76.29 52.98L76.2 53.019L76.104 53.061L76.008 53.103L75.909 53.145L75.807 53.19L75.705 53.235L75.597 53.283L75.492 53.331L75.381 53.382L75.27 53.433L75.156 53.487L75.042 53.541L74.925 53.595L74.808 53.652L74.688 53.709L74.568 53.766L74.448 53.823L74.325 53.883L74.202 53.946L73.914 54.09L73.62 54.24L73.317 54.402L73.008 54.567L72.69 54.741L72.366 54.924L72.033 55.11L71.697 55.305L71.355 55.503L71.007 55.71L70.653 55.92L70.296 56.139L69.93 56.361L69.564 56.589L69.192 56.823L68.817 57.06L68.439 57.303L68.058 57.549L67.671 57.801L67.284 58.056L66.897 58.314L66.504 58.578L66.111 58.845L65.718 59.112L65.325 59.385L64.929 59.661L64.533 59.937L64.137 60.219L63.741 60.501L63.345 60.786L62.952 61.071L62.559 61.359L62.169 61.647L61.779 61.938L61.392 62.229L61.008 62.523L60.624 62.814L60.246 63.108L59.871 63.402L59.499 63.696L58.989 64.104L58.482 64.521L57.984 64.947L57.492 65.382L57.003 65.826L56.523 66.279L56.046 66.738L55.578 67.206L55.113 67.683L54.657 68.166L54.204 68.658L53.76 69.156L53.322 69.663L52.893 70.176L52.467 70.695L52.05 71.223L51.639 71.757L51.234 72.297L50.838 72.846L50.448 73.398L50.067 73.959L49.692 74.523L49.326 75.096L48.966 75.672L48.615 76.254L48.27 76.845L47.934 77.439L47.604 78.036L47.286 78.642L46.974 79.251L46.671 79.863L46.374 80.484L46.089 81.105L45.81 81.732L45.54 82.365L45.279 83.001L45.027 83.64L44.784 84.285L44.55 84.933L44.325 85.584L44.256 85.794L44.184 86.001L44.118 86.208L44.052 86.409L43.989 86.607L43.926 86.805L43.866 86.997L43.806 87.186L43.749 87.375L43.692 87.561L43.638 87.747L43.587 87.93L43.536 88.11L43.485 88.29L43.437 88.467L43.392 88.644L43.344 88.821L43.302 88.998L43.257 89.172L43.215 89.346L43.176 89.52L43.134 89.694L43.095 89.871L43.059 90.045L43.023 90.219L42.987 90.396L42.951 90.573L42.918 90.75L42.882 90.93L42.849 91.11L42.819 91.293L42.786 91.476L42.756 91.662L42.726 91.848L42.696 92.037L42.666 92.229L42.639 92.424L42.609 92.622L42.582 92.823L42.552 93.027L42.534 93.189L42.513 93.363L42.495 93.54L42.477 93.726L42.462 93.915L42.444 94.113L42.429 94.314L42.417 94.521L42.402 94.734L42.39 94.95L42.378 95.172L42.369 95.394L42.36 95.622L42.351 95.85L42.342 96.084L42.336 96.318L42.33 96.552L42.327 96.789L42.321 97.026L42.318 97.263V97.5L42.315 97.74V97.974L42.318 98.211V98.445L42.321 98.676L42.327 98.904L42.33 99.132L42.336 99.354L42.345 99.573L42.351 99.789L42.36 100.002L42.372 100.209L42.384 100.41L42.396 100.605L42.408 100.797L42.423 100.98L42.438 101.157L42.456 101.325L42.471 101.49L42.567 102.273L42.678 103.053L42.801 103.83L42.936 104.604L43.086 105.372L43.248 106.14L43.425 106.902L43.614 107.661L43.815 108.417L44.031 109.167L44.259 109.914L44.499 110.655L44.751 111.396L45.018 112.128L45.297 112.857L45.588 113.583L45.894 114.303L46.209 115.017L46.539 115.728L46.881 116.433L47.235 117.132L47.604 117.828L47.982 118.518L48.375 119.202L48.777 119.88L49.194 120.552L49.623 121.221L50.061 121.881L50.514 122.538L50.979 123.186L51.456 123.831L51.945 124.467L52.443 125.097L52.956 125.721L53.481 126.339L54.015 126.951L54.561 127.554L55.122 128.151L55.692 128.742L56.274 129.324L56.532 129.576L56.793 129.828L57.06 130.08L57.33 130.332L57.603 130.584L57.882 130.836L58.161 131.085L58.446 131.337L58.734 131.583L59.022 131.832L59.316 132.078L59.61 132.321L59.907 132.564L60.204 132.807L60.504 133.044L60.804 133.281L61.107 133.515L61.41 133.749L61.713 133.977L62.016 134.202L62.322 134.427L62.625 134.646L62.928 134.862L63.234 135.075L63.534 135.285L63.837 135.489L64.137 135.69L64.437 135.885L64.734 136.08L65.031 136.266L65.322 136.449L65.613 136.626L65.904 136.8L66.189 136.968L66.471 137.13L66.75 137.286L67.029 137.436L67.299 137.58L67.569 137.718L67.833 137.85L68.073 137.97L68.319 138.087L68.574 138.21L68.835 138.33L69.102 138.453L69.375 138.576L69.657 138.702L69.942 138.825L70.23 138.951L70.524 139.074L70.821 139.2L71.124 139.326L71.427 139.449L71.733 139.572L72.042 139.695L72.351 139.818L72.66 139.938L72.972 140.058L73.284 140.175L73.593 140.292L73.902 140.409L74.211 140.52L74.517 140.631L74.823 140.739L75.123 140.844L75.42 140.949L75.714 141.048L76.005 141.147L76.29 141.24L76.572 141.333L76.845 141.42L77.115 141.504L77.376 141.582L77.631 141.657L77.88 141.729L78.12 141.798L78.351 141.861L78.573 141.918L78.786 141.972L78.99 142.02L79.047 142.032L79.095 142.044L79.134 142.056L79.164 142.068L79.188 142.077L79.206 142.086L79.215 142.092V142.101L79.209 142.107L79.197 142.11L79.179 142.116H79.155L79.125 142.119L79.086 142.122H79.044L78.996 142.119H78.942L78.885 142.116L78.822 142.113L78.756 142.11L78.684 142.107L78.606 142.101L78.525 142.095L78.441 142.086L78.354 142.08L78.264 142.071L78.171 142.062L78.075 142.053L77.973 142.044L77.874 142.032L77.769 142.02L77.661 142.008L77.553 141.996L77.445 141.984L77.334 141.969L77.223 141.954L77.109 141.939L76.995 141.924L76.881 141.909L76.764 141.891L76.014 141.774L75.267 141.645L74.52 141.504L73.776 141.351L73.035 141.183L72.297 141.006L71.562 140.817L70.827 140.616L70.098 140.403L69.369 140.181L68.646 139.944L67.926 139.698L67.212 139.44L66.498 139.17L65.793 138.888L65.088 138.597L64.389 138.294L63.696 137.982L63.006 137.658L62.322 137.322L61.641 136.977L60.969 136.62L60.3 136.254L59.637 135.879L58.983 135.492L58.332 135.096L57.687 134.688L57.051 134.271L56.418 133.845L55.794 133.41L55.179 132.963L54.57 132.507L53.967 132.042L53.37 131.568L52.785 131.085L52.203 130.593L51.633 130.089L51.069 129.579L50.514 129.06L49.968 128.529L49.653 128.217L49.341 127.902L49.035 127.587L48.735 127.275L48.438 126.96L48.147 126.645L47.862 126.33L47.58 126.012L47.304 125.694L47.031 125.379L46.767 125.058L46.503 124.74L46.245 124.419L45.993 124.098L45.744 123.774L45.498 123.45L45.258 123.123L45.024 122.796L44.793 122.466L44.565 122.136L44.34 121.803L44.121 121.47L43.905 121.131L43.695 120.795L43.485 120.453L43.281 120.111L43.08 119.766L42.885 119.418L42.69 119.067L42.501 118.716L42.315 118.359L42.132 118.002L41.952 117.639L41.775 117.276L41.601 116.91L41.43 116.538L41.265 116.166L41.1 115.788L40.938 115.41L40.779 115.026L40.287 113.757L39.831 112.476L39.414 111.186L39.036 109.884L38.7 108.57L38.4 107.244L38.136 105.909L37.914 104.559L37.731 103.2L37.587 101.826L37.479 100.44L37.413 99.042L37.386 97.632L37.395 96.207L37.446 94.77L37.536 93.321L37.662 91.86L37.83 90.381L38.037 88.893L38.283 87.387L38.568 85.869L38.892 84.339L39.255 82.791L39.657 81.231L40.098 79.656L40.581 78.066L41.1 76.461L41.661 74.841L42.261 73.206L42.9 71.556L43.578 69.888L44.295 68.205L45.054 66.51L45.852 64.794L46.689 63.066L47.565 61.32L48.48 59.556L49.437 57.777L50.433 55.98L51.468 54.168L51.555 54.018L51.639 53.871L51.726 53.724L51.813 53.577L51.897 53.43L51.981 53.286L52.065 53.139L52.149 52.995L52.233 52.854L52.317 52.713L52.398 52.572L52.479 52.434L52.56 52.296L52.638 52.161L52.716 52.029L52.791 51.9L52.869 51.771L52.941 51.645L53.013 51.522L53.085 51.402L53.154 51.285L53.223 51.168L53.289 51.057L53.352 50.949L53.415 50.847L53.472 50.745L53.532 50.649L53.586 50.553L53.64 50.466L53.691 50.379L53.739 50.301L53.784 50.223L53.829 50.151L53.868 50.085L53.907 50.022L53.94 49.968L53.973 49.914L54 49.869L54.027 49.827L54.048 49.794L54.078 49.746L54.108 49.698L54.135 49.653L54.162 49.611L54.189 49.572L54.213 49.533L54.234 49.494L54.255 49.458L54.276 49.422L54.294 49.392L54.312 49.359L54.327 49.329L54.342 49.302L54.357 49.275L54.369 49.248L54.381 49.224L54.39 49.2L54.399 49.179L54.405 49.158L54.411 49.14L54.417 49.122L54.42 49.104L54.423 49.089V49.074V49.059V49.047L54.42 49.035L54.417 49.023L54.411 49.014L54.408 49.002L54.399 48.996L54.393 48.987L54.384 48.981L54.372 48.975L54.363 48.969L54.351 48.963L54.336 48.96L54.321 48.957L54.306 48.954L54.291 48.951L54.279 48.948H54.27L54.258 48.945H54.246L54.234 48.948H54.219L54.207 48.951L54.192 48.954L54.177 48.957L54.162 48.963L54.147 48.969L54.129 48.975L54.114 48.981L54.096 48.987L54.078 48.996L54.06 49.002L54.042 49.011L54.024 49.02L54.006 49.032L53.985 49.041L53.967 49.053L53.946 49.065L53.928 49.077L53.907 49.089L53.889 49.101L53.868 49.116L53.85 49.128L53.829 49.143L53.808 49.158L53.79 49.173L53.769 49.188L53.751 49.206L53.73 49.221L53.709 49.239L53.691 49.257L53.673 49.275L53.652 49.293L53.634 49.311L53.616 49.329L53.598 49.347L53.472 49.479L53.328 49.641L53.16 49.836L52.977 50.061L52.773 50.313L52.554 50.595L52.317 50.901L52.065 51.228L51.801 51.582L51.525 51.954L51.234 52.347L50.934 52.758L50.625 53.184L50.307 53.625L49.98 54.081L49.647 54.549L49.311 55.026L48.966 55.512L48.621 56.007L48.273 56.508L47.922 57.012L47.571 57.519L47.223 58.029L46.875 58.536L46.53 59.043L46.188 59.55L45.852 60.048L45.522 60.543L45.198 61.029L44.883 61.506L44.574 61.971L44.277 62.427L43.992 62.865L43.719 63.291L43.458 63.702L43.212 64.092L42.981 64.464L42.768 64.815L42.57 65.142L42.393 65.445L42.132 65.895L41.874 66.351L41.616 66.813L41.358 67.281L41.1 67.755L40.845 68.235L40.587 68.718L40.335 69.207L40.08 69.699L39.828 70.197L39.576 70.695L39.327 71.199L39.081 71.706L38.835 72.216L38.589 72.729L38.349 73.242L38.109 73.758L37.872 74.274L37.638 74.793L37.407 75.312L37.176 75.831L36.951 76.35L36.729 76.869L36.507 77.388L36.291 77.904L36.081 78.42L35.871 78.936L35.667 79.449L35.466 79.959L35.268 80.469L35.076 80.973L34.887 81.477L34.704 81.975L34.524 82.47L34.35 82.962L34.182 83.448L34.017 83.931L33.858 84.408L33.705 84.879L33.555 85.344L33.45 85.68L33.348 86.01L33.249 86.34L33.15 86.664L33.057 86.985L32.964 87.303L32.874 87.621L32.787 87.933L32.7 88.245L32.619 88.554L32.538 88.86L32.457 89.166L32.382 89.469L32.307 89.772L32.235 90.072L32.163 90.375L32.097 90.675L32.028 90.975L31.965 91.275L31.902 91.572L31.842 91.872L31.782 92.175L31.725 92.475L31.668 92.778L31.614 93.081L31.56 93.384L31.509 93.69L31.458 93.999L31.41 94.308L31.365 94.62L31.317 94.935L31.275 95.253L31.23 95.571L31.188 95.895L31.149 96.222L31.107 96.552L31.071 96.885L31.032 97.221L30.996 97.563L30.96 97.911L30.882 98.739L30.81 99.555L30.75 100.365L30.699 101.166L30.66 101.955L30.63 102.738L30.609 103.515L30.597 104.28V105.042L30.609 105.795L30.627 106.542L30.657 107.28L30.699 108.015L30.75 108.744L30.813 109.467L30.885 110.184L30.969 110.898L31.062 111.606L31.167 112.311L31.281 113.013L31.407 113.712L31.545 114.405L31.692 115.098L31.851 115.788L32.022 116.478L32.202 117.162L32.394 117.849L32.598 118.533L32.814 119.214L33.039 119.898L33.276 120.582L33.528 121.263L33.789 121.947L34.059 122.634L34.344 123.318L34.641 124.008L34.947 124.695L35.268 125.388L35.598 126.084L35.943 126.78L36.168 127.23L36.396 127.674L36.627 128.112L36.858 128.544L37.089 128.973L37.323 129.399L37.56 129.816L37.797 130.233L38.037 130.644L38.28 131.049L38.526 131.451L38.772 131.85L39.024 132.246L39.276 132.639L39.534 133.029L39.792 133.416L40.056 133.8L40.32 134.181L40.59 134.559L40.863 134.937L41.142 135.312L41.421 135.684L41.706 136.056L41.997 136.425L42.291 136.794L42.588 137.163L42.891 137.529L43.197 137.895L43.512 138.261L43.827 138.627L44.151 138.993L44.478 139.356L44.811 139.722L45.15 140.088L45.495 140.457L45.846 140.823L46.203 141.192L46.566 141.561L46.935 141.933L47.31 142.305L47.7 142.689L48.09 143.064L48.48 143.436L48.87 143.805L49.263 144.165L49.656 144.522L50.049 144.876L50.442 145.224L50.838 145.566L51.237 145.905L51.636 146.238L52.035 146.565L52.437 146.892L52.842 147.21L53.247 147.528L53.655 147.84L54.063 148.146L54.474 148.452L54.888 148.752L55.305 149.046L55.725 149.34L56.148 149.628L56.571 149.913L57 150.195L57.429 150.474L57.861 150.75L58.299 151.02L58.74 151.29L59.181 151.557L59.628 151.818L60.081 152.079L60.534 152.334L60.993 152.589L61.455 152.841L61.92 153.09L62.391 153.336L62.868 153.579L63.345 153.822L63.831 154.062L64.32 154.299L64.653 154.458L64.98 154.614L65.304 154.764L65.622 154.911L65.94 155.058L66.252 155.199L66.558 155.337L66.867 155.472L67.17 155.604L67.473 155.733L67.773 155.862L68.073 155.988L68.373 156.111L68.67 156.231L68.97 156.348L69.27 156.468L69.573 156.582L69.876 156.696L70.179 156.81L70.488 156.921L70.797 157.032L71.112 157.143L71.427 157.251L71.748 157.359L72.075 157.467L72.405 157.575L72.741 157.683L73.083 157.791L73.431 157.902L73.785 158.01L74.145 158.118L74.514 158.229L74.892 158.34L75.276 158.451L75.669 158.565L76.071 158.679L76.485 158.793L76.905 158.91L77.337 159.03L77.781 159.15L78.537 159.351L79.266 159.546L79.971 159.732L80.655 159.909L81.315 160.08L81.957 160.242L82.578 160.398L83.178 160.545L83.763 160.686L84.333 160.821L84.885 160.947L85.422 161.067L85.95 161.181L86.463 161.289L86.964 161.391L87.459 161.487L87.942 161.577L88.419 161.661L88.887 161.739L89.352 161.811L89.811 161.88L90.267 161.943L90.72 162.003L91.173 162.057L91.626 162.105L92.079 162.15L92.535 162.189L92.994 162.228L93.459 162.258L93.927 162.288L94.401 162.315L94.884 162.336L95.376 162.354L95.877 162.372L96.387 162.384L96.909 162.393L97.446 162.402L97.998 162.408L98.562 162.411H99.144H99.549L99.939 162.408H100.32L100.689 162.405L101.046 162.402L101.391 162.396L101.73 162.393L102.057 162.387L102.375 162.378L102.687 162.369L102.99 162.36L103.284 162.348L103.575 162.336L103.86 162.324L104.139 162.309L104.412 162.294L104.682 162.276L104.949 162.258L105.21 162.237L105.471 162.213L105.732 162.189L105.99 162.165L106.248 162.138L106.503 162.108L106.761 162.078L107.019 162.045L107.28 162.009L107.544 161.973L107.808 161.934L108.078 161.895L108.351 161.85L108.627 161.805L108.909 161.76L109.197 161.709L109.491 161.658L109.791 161.604L110.1 161.547L110.415 161.487L110.742 161.424L111.075 161.361L111.888 161.199L112.695 161.025L113.502 160.839L114.303 160.644L115.098 160.437L115.893 160.221L116.682 159.993L117.465 159.756L118.245 159.507L119.019 159.249L119.787 158.982L120.552 158.703L121.308 158.415L122.061 158.118L122.808 157.812L123.549 157.494L124.284 157.167L125.01 156.831L125.733 156.486L126.447 156.132L127.152 155.769L127.854 155.394L128.547 155.013L129.231 154.623L129.909 154.224L130.578 153.816L131.238 153.399L131.889 152.976L132.534 152.541L133.17 152.1L133.797 151.65L134.412 151.194L135.021 150.726L135.618 150.255L136.209 149.772L136.788 149.283L137.355 148.788L137.913 148.281L138.462 147.771L138.999 147.252L139.701 146.544L140.382 145.824L141.045 145.086L141.69 144.336L142.311 143.568L142.917 142.788L143.502 141.99L144.066 141.18L144.612 140.355L145.14 139.515L145.647 138.66L146.133 137.79L146.601 136.905L147.051 136.005L147.48 135.093L147.888 134.166L148.278 133.224L148.647 132.267L148.998 131.295L149.328 130.311L149.64 129.312L149.931 128.298L150.201 127.272L150.453 126.231L150.687 125.175L150.897 124.107L151.089 123.024L151.263 121.926L151.416 120.813L151.548 119.688L151.662 118.551L151.755 117.399L151.83 116.232L151.881 115.053L151.917 113.859L151.929 112.653L151.923 111.432L151.896 110.199L151.851 108.954L151.785 107.694L151.734 106.887L151.674 106.077L151.608 105.264L151.536 104.448L151.458 103.629L151.374 102.807L151.281 101.982L151.182 101.154L151.077 100.326L150.966 99.495L150.846 98.664L150.723 97.83L150.594 96.993L150.456 96.159L150.312 95.322L150.165 94.485L150.009 93.648L149.847 92.811L149.682 91.974L149.508 91.137L149.328 90.3L149.145 89.463L148.953 88.629L148.758 87.798L148.557 86.964L148.347 86.136L148.134 85.308L147.918 84.483L147.693 83.658L147.465 82.839L147.228 82.02L146.988 81.207L146.745 80.397L146.493 79.587L146.238 78.783L145.977 77.985L145.71 77.19L145.44 76.398L145.164 75.612L144.885 74.829L144.399 73.521L143.898 72.213L143.385 70.911L142.857 69.612L142.314 68.313L141.756 67.017L141.186 65.724L140.598 64.434L139.998 63.144L139.38 61.854L138.747 60.567L138.099 59.28L137.436 57.993L136.755 56.706L136.059 55.419L135.348 54.132L134.619 52.845L133.872 51.555L133.113 50.268L132.333 48.975L131.538 47.682L130.725 46.389L129.894 45.093L129.045 43.794L128.181 42.492L127.296 41.187L126.396 39.879L125.475 38.568L124.539 37.251L123.582 35.934L122.607 34.611L121.611 33.282L120.6 31.95L119.565 30.612L118.515 29.268L117.444 27.921L116.352 26.565L115.242 25.206L114.111 23.838L112.962 22.467L112.854 22.338L112.746 22.209L112.638 22.086L112.533 21.96L112.431 21.837L112.326 21.717L112.224 21.597L112.125 21.48L112.026 21.366L111.93 21.252L111.834 21.141L111.741 21.03L111.651 20.925L111.561 20.82L111.474 20.718L111.39 20.622L111.309 20.526L111.228 20.433L111.15 20.343L111.075 20.256L111.003 20.172L110.934 20.091L110.865 20.013L110.802 19.941L110.742 19.872L110.682 19.806L110.628 19.743L110.577 19.683L110.529 19.629L110.484 19.581L110.445 19.533L110.406 19.494L110.373 19.455L110.343 19.425L110.319 19.395L110.298 19.374L110.28 19.356L110.265 19.344L110.256 19.335L110.253 19.332L110.25 19.335L110.253 19.338ZM62.451 87.15L62.49 87.441L62.538 87.732L62.589 88.02L62.646 88.305L62.712 88.587L62.781 88.866L62.856 89.145L62.937 89.421L63.024 89.694L63.12 89.967L63.219 90.237L63.324 90.504L63.435 90.771L63.552 91.035L63.675 91.296L63.804 91.554L63.939 91.812L64.08 92.07L64.23 92.325L64.383 92.577L64.542 92.829L64.71 93.078L64.881 93.324L65.058 93.57L65.244 93.816L65.436 94.059L65.631 94.299L65.835 94.539L66.045 94.779L66.261 95.016L66.483 95.253L66.711 95.487L66.948 95.721L67.188 95.955L67.437 96.183L67.689 96.411L67.944 96.633L68.205 96.852L68.469 97.068L68.736 97.281L69.009 97.488L69.285 97.692L69.564 97.893L69.846 98.091L70.131 98.283L70.419 98.472L70.713 98.658L71.007 98.838L71.307 99.015L71.61 99.186L71.913 99.357L72.222 99.522L72.534 99.681L72.846 99.837L73.161 99.99L73.482 100.137L73.803 100.281L74.127 100.419L74.451 100.554L74.781 100.683L75.111 100.809L75.444 100.932L75.78 101.046L76.116 101.16L76.455 101.265L76.797 101.37L77.139 101.466L77.484 101.559L77.829 101.649L77.877 101.661L77.922 101.673L77.97 101.685L78.018 101.697L78.063 101.709L78.108 101.721L78.156 101.733L78.201 101.745L78.246 101.757L78.291 101.769L78.333 101.781L78.378 101.79L78.42 101.802L78.462 101.814L78.501 101.826L78.54 101.835L78.579 101.847L78.618 101.856L78.654 101.865L78.69 101.877L78.726 101.886L78.759 101.895L78.792 101.904L78.822 101.913L78.852 101.919L78.879 101.928L78.906 101.937L78.93 101.943L78.954 101.949L78.975 101.955L78.996 101.961L79.014 101.967L79.029 101.973L79.044 101.979L79.056 101.982L79.074 101.991L79.08 102.006L79.077 102.027L79.062 102.051L79.041 102.081L79.008 102.114L78.969 102.153L78.921 102.192L78.867 102.237L78.807 102.282L78.741 102.33L78.669 102.381L78.591 102.432L78.51 102.486L78.426 102.54L78.339 102.597L78.249 102.651L78.156 102.708L78.063 102.762L77.967 102.816L77.874 102.87L77.778 102.924L77.685 102.972L77.592 103.02L77.502 103.068L77.415 103.11L77.331 103.149L77.25 103.188L77.172 103.221L77.1 103.248L77.034 103.272L76.971 103.293L76.917 103.305L76.869 103.314L76.83 103.317H76.791L76.74 103.311L76.68 103.302L76.611 103.29L76.53 103.275L76.44 103.257L76.344 103.236L76.239 103.212L76.125 103.188L76.008 103.158L75.882 103.128L75.75 103.095L75.615 103.062L75.474 103.026L75.327 102.987L75.177 102.948L75.027 102.909L74.871 102.867L74.715 102.822L74.559 102.78L74.4 102.735L74.241 102.69L74.082 102.642L73.923 102.597L73.767 102.552L73.611 102.504L73.458 102.459L73.308 102.411L73.161 102.366L73.017 102.321L72.879 102.276L72.744 102.234L72.618 102.192L72.495 102.15L72.381 102.108L72.096 102.009L71.811 101.904L71.529 101.793L71.244 101.676L70.959 101.559L70.677 101.433L70.392 101.307L70.11 101.175L69.831 101.037L69.552 100.899L69.276 100.755L69 100.611L68.73 100.461L68.46 100.311L68.193 100.155L67.929 99.999L67.671 99.837L67.413 99.675L67.161 99.513L66.915 99.345L66.672 99.18L66.432 99.009L66.201 98.838L65.973 98.667L65.751 98.496L65.535 98.322L65.325 98.148L65.121 97.971L64.923 97.797L64.734 97.623L64.551 97.446L64.377 97.272L64.209 97.098L64.05 96.921L63.9 96.75L63.813 96.645L63.726 96.54L63.639 96.429L63.555 96.318L63.471 96.207L63.387 96.09L63.303 95.973L63.219 95.856L63.138 95.733L63.06 95.613L62.979 95.49L62.901 95.364L62.826 95.241L62.751 95.115L62.676 94.989L62.604 94.863L62.532 94.734L62.466 94.608L62.397 94.479L62.334 94.353L62.271 94.227L62.208 94.101L62.151 93.975L62.094 93.852L62.04 93.729L61.986 93.606L61.938 93.483L61.89 93.363L61.848 93.246L61.806 93.129L61.767 93.015L61.731 92.904L61.698 92.793L61.668 92.685L61.641 92.58L61.62 92.484L61.602 92.382L61.584 92.277L61.572 92.169L61.557 92.055L61.548 91.938L61.539 91.818L61.533 91.692L61.53 91.566L61.527 91.431V91.296L61.53 91.155L61.533 91.011L61.539 90.864L61.548 90.711L61.557 90.555L61.572 90.396L61.584 90.231L61.602 90.066L61.62 89.895L61.641 89.718L61.665 89.538L61.692 89.355L61.719 89.169L61.749 88.977L61.779 88.782L61.812 88.584L61.848 88.383L61.887 88.176L61.926 87.966L61.968 87.75L62.013 87.534L62.058 87.312L62.109 87.084L62.157 86.856L62.367 86.379L62.415 86.856L62.451 87.15Z" fill="white"/>
</svg>
